<svg xmlns="http://www.w3.org/2000/svg" viewBox="0 0 446.28 330.28"><defs><style>.cls-1{fill:#dff3fc;}.cls-2{fill:#a2c7eb;}.cls-20,.cls-21,.cls-27,.cls-28,.cls-29,.cls-3,.cls-7{fill:none;}.cls-3{stroke:#a2c7eb;}.cls-20,.cls-21,.cls-27,.cls-28,.cls-29,.cls-3,.cls-4,.cls-7{stroke-miterlimit:10;}.cls-4,.cls-6{fill:#0097d8;}.cls-4{stroke:#0097d8;}.cls-5{fill:#fff;}.cls-7{stroke:#6f8bbf;}.cls-20,.cls-21,.cls-27,.cls-28,.cls-29,.cls-7{stroke-linecap:round;}.cls-8{fill:#e06a58;}.cls-9{fill:#f2ae30;}.cls-10{fill:#0a2240;}.cls-11{fill:#f9a07b;}.cls-12{fill:#ffc73c;}.cls-13{fill:#fb3;}.cls-14{fill:#fce172;}.cls-15{fill:#325f73;}.cls-16{fill:#0b2d50;}.cls-17{fill:#3c738c;}.cls-18{fill:#56c4f9;}.cls-19{fill:#225570;}.cls-20{stroke:#0b2d50;}.cls-20,.cls-21,.cls-27{stroke-width:2px;}.cls-21,.cls-28{stroke:#cc454e;}.cls-22{fill:#262d40;}.cls-23{fill:#cc454e;}.cls-24{fill:#e8729b;}.cls-25{fill:#3d86e0;}.cls-26{fill:#3a92c9;}.cls-27{stroke:#3a92c9;}.cls-29{stroke:#f2ae30;}</style></defs><g id="Layer_2" data-name="Layer 2"><g id="OBJECTS"><path class="cls-1" d="M403.67,324.71c47.49-36.11,68.64-136.24-8.47-185.34-51.05-32.5-82.8-14-140.23-35.46C184.86,77.67,174.41-1.61,89.13,37.4,44,58.06,12.63,116.29,7.12,182.47c-5.4,64.81,17.57,109.28,64.51,139.71C181.86,326.87,292.31,326,403.67,324.71Z"/><path class="cls-1" d="M208.57,39.9C201.4,68.7,228,97.21,256.1,109s60.24,10.42,90.3,4.78c13-2.43,26.31-5.85,36.39-14.12s15.92-22.63,10.4-34.23C388.31,55.23,376.45,50,365.13,47.3s-23.32-3.79-33.4-9.45c-9.56-5.37-16.34-14.26-24.65-21.3-15.35-13-36.92-19.43-56.89-15.32S214.67,15.42,208.57,39.9Z"/><path class="cls-2" d="M423.43,172.37V150.58h-8.26a42.11,42.11,0,0,0-4.44-10.71l5.84-5.85-15.41-15.41-5.85,5.84A42.32,42.32,0,0,0,384.6,120v-8.26H362.82V120a42.47,42.47,0,0,0-10.71,4.44l-5.85-5.84L330.85,134l5.84,5.85a42.47,42.47,0,0,0-4.44,10.71H324v21.79h8.26a42.47,42.47,0,0,0,4.44,10.71l-5.84,5.85,15.41,15.41,5.85-5.84a42.84,42.84,0,0,0,10.71,4.44v8.26H384.6v-8.26a42.69,42.69,0,0,0,10.71-4.44l5.85,5.84,15.41-15.41-5.84-5.85a42.11,42.11,0,0,0,4.44-10.71Zm-49.71,8a18.88,18.88,0,1,1,18.87-18.88A18.88,18.88,0,0,1,373.72,180.35Z"/><path class="cls-3" d="M357.59,227l-4.14-10.81-4.1,1.58a22.24,22.24,0,0,0-4.24-4.47l1.79-4-10.58-4.71-1.79,4a22.58,22.58,0,0,0-6.15-.17l-1.58-4.1L316,208.43l1.57,4.1a22.19,22.19,0,0,0-4.46,4.24l-4-1.79-4.71,10.58,4,1.79a22.57,22.57,0,0,0-.16,6.15l-4.1,1.58,4.15,10.8,4.09-1.57a22.47,22.47,0,0,0,4.24,4.46l-1.78,4,10.57,4.71,1.79-4a22.64,22.64,0,0,0,6.16.16l1.57,4.1,10.81-4.15-1.58-4.09a22.52,22.52,0,0,0,4.47-4.24l4,1.78,4.71-10.57-4-1.79a22.64,22.64,0,0,0,.17-6.16Zm-23.13,13.42a10,10,0,1,1,5.76-13A10,10,0,0,1,334.46,240.38Z"/><path class="cls-3" d="M322.19,189.06l-2.8-7.3-2.77,1.06a15.21,15.21,0,0,0-2.86-3l1.2-2.71-7.14-3.18-1.21,2.71a14.84,14.84,0,0,0-4.16-.11l-1.06-2.77-7.3,2.8,1.06,2.77a15.21,15.21,0,0,0-3,2.86l-2.71-1.2-3.18,7.14,2.71,1.21a14.84,14.84,0,0,0-.11,4.16l-2.77,1.06,2.8,7.3,2.77-1.06a15.21,15.21,0,0,0,2.86,3l-1.2,2.71,7.14,3.18,1.21-2.71a14.83,14.83,0,0,0,4.16.11l1.06,2.77,7.3-2.8-1.06-2.77a15.21,15.21,0,0,0,3-2.86l2.71,1.2,3.18-7.14-2.71-1.21a14.84,14.84,0,0,0,.11-4.16Zm-15.63,9.07a6.78,6.78,0,1,1,3.9-8.76A6.78,6.78,0,0,1,306.56,198.13Z"/><path class="cls-4" d="M319.65,61.23A34.43,34.43,0,1,1,285.23,26.8,34.38,34.38,0,0,1,319.65,61.23Z"/><circle class="cls-5" cx="285.23" cy="49.9" r="11.27" transform="translate(-3.96 35.32) rotate(-7.04)"/><path class="cls-5" d="M306.57,83.9a34.45,34.45,0,0,1-42.69,0c2.2-9.69,4.23-18.05,6.33-20.17,3-3,10.89-4.71,15-4.71s12.4,2.11,13.93,3.64C302.26,65.77,305,74.36,306.57,83.9Z"/><path class="cls-6" d="M235.75,146.09v-17a8.4,8.4,0,0,1,8.4-8.4h53.56a8.4,8.4,0,0,1,8.4,8.4v17a8.4,8.4,0,0,1-8.4,8.4H244.16A8.4,8.4,0,0,1,235.75,146.09Z"/><polyline class="cls-6" points="258.37 145.21 232.45 170.46 274.46 149.22"/><path class="cls-5" d="M242.25,128.67v-.09a1.25,1.25,0,0,1,1.25-1.25H270a1.25,1.25,0,0,1,1.25,1.25v.09a1.25,1.25,0,0,1-1.25,1.25H243.5A1.25,1.25,0,0,1,242.25,128.67Z"/><path class="cls-5" d="M272.42,128.67v-.09a1.25,1.25,0,0,1,1.25-1.25h23.11a1.25,1.25,0,0,1,1.25,1.25v.09a1.25,1.25,0,0,1-1.25,1.25H273.67A1.25,1.25,0,0,1,272.42,128.67Z"/><path class="cls-5" d="M262.33,134.36v-.09a1.25,1.25,0,0,1,1.25-1.25h33.2a1.25,1.25,0,0,1,1.25,1.25v.09a1.25,1.25,0,0,1-1.25,1.25h-33.2A1.25,1.25,0,0,1,262.33,134.36Z"/><path class="cls-5" d="M242.25,134.36v-.09A1.25,1.25,0,0,1,243.5,133h14.83a1.25,1.25,0,0,1,1.25,1.25v.09a1.25,1.25,0,0,1-1.25,1.25H243.5A1.25,1.25,0,0,1,242.25,134.36Z"/><path class="cls-5" d="M266.94,140.05V140a1.25,1.25,0,0,1,1.25-1.25h28.59A1.25,1.25,0,0,1,298,140v.09a1.25,1.25,0,0,1-1.25,1.25H268.19A1.25,1.25,0,0,1,266.94,140.05Z"/><path class="cls-5" d="M242.25,140.05V140a1.25,1.25,0,0,1,1.25-1.25h19.75A1.25,1.25,0,0,1,264.5,140v.09a1.25,1.25,0,0,1-1.25,1.25H243.5A1.25,1.25,0,0,1,242.25,140.05Z"/><path class="cls-5" d="M242.25,145.74v-.09a1.25,1.25,0,0,1,1.25-1.25h7.33a1.25,1.25,0,0,1,1.25,1.25v.09a1.25,1.25,0,0,1-1.25,1.25H243.5A1.25,1.25,0,0,1,242.25,145.74Z"/><path class="cls-5" d="M254.67,145.74v-.09a1.25,1.25,0,0,1,1.25-1.25h40.86a1.25,1.25,0,0,1,1.25,1.25v.09a1.25,1.25,0,0,1-1.25,1.25H255.92A1.25,1.25,0,0,1,254.67,145.74Z"/><circle class="cls-6" cx="73.51" cy="108.06" r="33.12" transform="translate(-55.47 129.12) rotate(-65.05)"/><circle class="cls-5" cx="65.7" cy="124.31" r="8.03" transform="translate(-37.48 28.8) rotate(-19.35)"/><polygon class="cls-6" points="61.49 127.19 61.1 122.1 65.32 119.22 69.92 121.43 70.31 126.52 66.09 129.4 61.49 127.19"/><circle class="cls-5" cx="81.31" cy="91.8" r="8.03" transform="translate(-26.16 32.73) rotate(-19.67)"/><polygon class="cls-6" points="77.33 94.2 77.61 87.72 82.49 83.46 87.09 85.67 86.81 92.14 81.93 96.41 77.33 94.2"/><path class="cls-5" d="M71.26,120.6l-6.14-2.94,4.54-10.47c.29-.67.6-1.32.94-2l5.33-10.08,6.14,2.94L77.69,108.4c-.34.8-.71,1.58-1.12,2.34Z"/><path class="cls-6" d="M96.51,125.88c1.19-.55,20.19.31,20.19.31L103,113.62Z"/><circle class="cls-6" cx="150.5" cy="39.13" r="32.55" transform="translate(54.83 161.73) rotate(-66.61)"/><rect class="cls-5" x="149.42" y="11.39" width="2.17" height="27.34"/><rect class="cls-5" x="137.4" y="33.65" width="2.17" height="27.71" transform="translate(178.25 188.42) rotate(-124.69)"/><path class="cls-5" d="M153.5,39.13a3,3,0,1,1-3-3A3,3,0,0,1,153.5,39.13Z"/><path class="cls-2" d="M238.88,259.55C237,229.79,250,199,271.9,181.37,272.58,211.28,259.69,241.55,238.88,259.55Z"/><path class="cls-7" d="M268.32,189.38a394.73,394.73,0,0,0-23.87,53.83c-8.07,22.57-14.42,46.55-28.24,65.47"/><path class="cls-2" d="M232,278.27c11.1-24.83,33.13-43.59,57.42-48.9C279,256,255.78,276.28,232,278.27Z"/><path class="cls-7" d="M283.42,234.84q-24.89,21.9-50.61,42.56"/><path class="cls-2" d="M225.41,299.9c14.83-22.15,42.19-33.71,64.83-27.39C273.59,294.38,246.17,306,225.41,299.9Z"/><path class="cls-7" d="M284.81,274.11a215.86,215.86,0,0,1-62,26.54"/><path class="cls-2" d="M233.42,270.74c4.74-24.94-2.37-52.74-18.2-71.13C208.73,224.12,214.92,252.84,233.42,270.74Z"/><path class="cls-7" d="M216.85,206a270,270,0,0,0,17.27,66.17"/><path class="cls-2" d="M225.28,292c-2-25.64-15.16-49.72-34.38-63a109.57,109.57,0,0,0,10.45,38.57C207.94,281.21,217.62,289.88,225.28,292Z"/><path class="cls-7" d="M193.75,234.16a203.69,203.69,0,0,0,32,58.36"/><path class="cls-2" d="M373.71,285.83c10.49-27.29,34.62-49.43,61.23-56.17C423.28,256.58,399.48,278.28,373.71,285.83Z"/><path class="cls-7" d="M428.49,235.33a387.74,387.74,0,0,0-43.16,38.21c-16.38,16.82-31.83,35.58-51.8,46.8"/><path class="cls-2" d="M359.92,299.68c20-17.59,47.15-25.31,70.79-20.13C410.67,299,381.79,307.63,359.92,299.68Z"/><path class="cls-7" d="M423.2,282q-31,9.36-62.18,17.26"/><path class="cls-2" d="M345.26,316.28c22.19-13.68,51.11-12.81,68.53,2.06C390.11,331,361.12,330.15,345.26,316.28Z"/><path class="cls-7" d="M408.34,317.54a209.06,209.06,0,0,1-65.7-1.67"/><path class="cls-2" d="M364.3,293.57c14.41-20.28,19.52-47.95,13.07-70.79C361.58,242,355.28,270.07,364.3,293.57Z"/><path class="cls-7" d="M376.2,229.1a265.89,265.89,0,0,0-11.85,66"/><path class="cls-2" d="M348.4,309.17c8.72-23.66,7-50.48-4.56-70.16a108.18,108.18,0,0,0-6.57,38.62C337.48,292.49,342.48,304.17,348.4,309.17Z"/><path class="cls-7" d="M344.22,244.79a200.54,200.54,0,0,0,4.37,65"/><path class="cls-2" d="M76.41,238.12C65.71,205.41,35.87,179,1.15,171.48,15.75,199.78,42.22,222.3,76.41,238.12Z"/><path class="cls-2" d="M78.22,243.19A99,99,0,0,0,0,235.4,110.44,110.44,0,0,0,78.22,243.19Z"/><path class="cls-2" d="M84.7,250.29c-25.32-3.51-51.83,2.73-72.39,17C35.62,275.8,63.59,270.3,84.7,250.29Z"/><path class="cls-2" d="M92.59,265.78c-25.07-.1-49.72,11.81-64.46,31.16a55.08,55.08,0,0,0,33.25-3.74C71.61,288.57,80.19,280.66,92.59,265.78Z"/><path class="cls-2" d="M110.27,291.71c-24.73-4.24-51.06,3.42-68.89,20a55.3,55.3,0,0,0,33.44,1.82C85.7,310.69,95.51,304.32,110.27,291.71Z"/><path class="cls-2" d="M83.58,239.67c-16.33-22-20.76-51.65-11.48-76.88,7.08,12,13.19,24.68,16,38.15S90.44,228.79,83.58,239.67Z"/><path class="cls-2" d="M93.55,260.9a75.82,75.82,0,0,1,21-65.08C116.5,220,109.1,244.64,93.55,260.9Z"/><path class="cls-7" d="M8.75,177.34c49.69,31.79,88.54,79.18,109.05,133"/><path class="cls-7" d="M73.64,174.39a394.11,394.11,0,0,1,11,74.72"/><path class="cls-7" d="M110.85,205.31A145.61,145.61,0,0,1,93,261.88"/><path class="cls-7" d="M10.46,236a402.84,402.84,0,0,0,69.08,7"/><path class="cls-7" d="M24.18,265.38a185.52,185.52,0,0,0,60.77-15"/><path class="cls-7" d="M36.77,293.41l58.14-29"/><path class="cls-7" d="M49.37,310.48c25.31-4.88,32.82-10.71,60.91-18.77"/><path class="cls-8" d="M209.56,264.13s2.19,20.07,4.64,21.68c4.38,2.89,55.08,9.57,55.08,9.57l-1.66,13.19s-69.44,6.24-72.39,2.77c-5.12-6-14.12-35.06-14.12-35.06Z"/><path class="cls-9" d="M176.08,212.46,181.69,199s15.22,7.15,20.24,16c5.37,9.44,11.94,59.63,11.94,59.63s-26.87,6.19-31.81,3.56S176.08,212.46,176.08,212.46Z"/><path class="cls-10" d="M133.35,149.94c-3.93-1.44-8.09-2.7-12.3-2.38s-8.51,2.55-9.94,6.25c-1,2.62-.55,5.71-2.16,8.07s-4.6,3.2-7.46,3.39-5.76-.18-8.61.19c-8.8,1.17-15.08,10.73-12.19,18.56,1.15,3.12,3.51,6.1,3,9.35-.57,3.48-4.22,5.77-5.72,9-2,4.3.39,9.51,4.32,12.44s9,4,14,4.77c6.83,1,13.88,1.5,20.63.06s13.2-5,16.69-10.56c1.55-2.46,2.49-5.24,4.29-7.55,3.72-4.77,10.31-6.62,15.5-10,5.67-3.71,9.83-10.93,6.49-16.58-3.22-5.43-11.6-6.64-15-12-1.39-2.21-1.72-4.84-2.62-7.25S139.16,152.07,133.35,149.94Z"/><path class="cls-11" d="M156.25,216.55c1,1.14,2.16,2.39,3.78,2.5s3.14-1.09,4.24-2.26a43,43,0,0,0,10.95-21c-1.41-.8-2.77-1.57-4-2.29a6.07,6.07,0,0,1-2.49-2.74,5.26,5.26,0,0,1-.37-2.58,73.74,73.74,0,0,1,4.15-19.34C160,166,148.14,162.65,141.34,157c-.83,3.5-1.81,10.35-3.9,17.14-2.23,7.19-5.71,14.3-11.61,17.36A124.42,124.42,0,0,1,156.25,216.55Z"/><path class="cls-8" d="M168.36,188.19a5.25,5.25,0,0,0,.37,2.58c-7.42,9-24-2.76-31.29-16.65,2.09-6.79,3.07-13.64,3.9-17.14,6.79,5.68,18.63,9.05,31.17,11.87A73.66,73.66,0,0,0,168.36,188.19Z"/><path class="cls-12" d="M189,297c-1.64,10.86,10.08,22.55,10.37,28.35-24.89,0-77,1.52-103.58-2.09-1.21-6.7,11.9-21.77,11.9-36.65,0-2-.08-4.13-.24-6.45-.42-6.64-1.4-14.54-2.49-22.64-3-21.73-6.9-45-4-49.79,5.7-9.39,19-15.77,25.64-18.51,2.27-.94,3.75-1.45,3.86-1.51,8.29,14.14,25.16,26.2,31.53,25.66,1.77-.14,7-2,10.49-19.44,1.35.77,2.7,1.48,4,2.17,6.59,3.43,12.77,6.26,14.55,10.67,4.7,11.61,9.31,40.88,8.29,51.29s-5.25,18.52-8.21,29.06c-.69,2.47-1.32,5.09-1.83,7.91C189.22,295.65,189.12,296.31,189,297Z"/><path class="cls-13" d="M199.39,325.34c-24.89,0-77,1.52-103.58-2.09-1.21-6.7,11.9-21.77,11.9-36.65,0-2-.08-4.13-.24-6.45-.42-6.64-1.4-14.54-2.49-22.64,4.71,5,11.58-16,14.62-9.88,16.45,33.2,29.42,41.93,52,41.93a86.54,86.54,0,0,0,19.62-2.45c-.69,2.47-1.32,5.09-1.83,7.91q-.18,1-.33,2C187.38,307.84,199.1,319.53,199.39,325.34Z"/><path class="cls-14" d="M176.55,196.09c-1.07,7.77-4.24,18.24-13.46,21-12.46,3.73-30.49-19.55-36.46-27.88,2.27-.94,3.75-1.45,3.86-1.51,8.29,14.14,25.16,26.2,31.53,25.66,1.77-.14,7-2,10.49-19.44C173.86,194.68,175.21,195.39,176.55,196.09Z"/><polygon class="cls-15" points="181.67 313.65 181.58 322.32 336.58 323.25 336.9 313.42 181.67 313.65"/><polygon class="cls-15" points="403.76 236.31 400.31 232.81 287.41 232.06 230.77 313.98 233.73 316.36 403.76 236.31"/><polygon class="cls-16" points="289.59 235.09 233.73 316.36 340.43 316.88 403.76 236.31 289.59 235.09"/><ellipse class="cls-17" cx="316.55" cy="280.75" rx="12.42" ry="6.21"/><ellipse class="cls-18" cx="195.24" cy="156.98" rx="17.39" ry="11.47" transform="translate(5.15 320.15) rotate(-79.44)"/><path class="cls-16" d="M206.53,129.44c-1.16,8.22-4.83,17.28-10.18,27.29-1.88-8.2-3.08-18.19-4.74-28.18s-3.84-20-7.57-28.2a49,49,0,0,0-2.74-5.14,18.25,18.25,0,0,1,6.58.59,22,22,0,0,1,9,4.91A31.56,31.56,0,0,1,205.65,115,32.16,32.16,0,0,1,206.53,129.44Z"/><path class="cls-11" d="M200.25,137.94c-.06,1.62-.17,3.27-.32,4.91-2.28,26.6-13.45,44.85-30.54,44.85-24.13,0-39.77-27.06-39.77-53.57,0-26.15,16-45.08,34.77-42.89,10.81,1.24,18.71,4.83,24.32,10.09a33.15,33.15,0,0,1,8.22,12.54,54.83,54.83,0,0,1,3.31,18.06s0,0,0,.06C200.34,133.93,200.32,135.91,200.25,137.94Z"/><path class="cls-8" d="M200.25,137.94a26.73,26.73,0,0,0-3.25-7.33,75.93,75.93,0,0,1-47.27,7.59l-9.06,7.57c.06-12.1.23-20.29,5-26.15,4.43-5.5,11.82-7.57,18.82-8.47a87.05,87.05,0,0,1,23.75.15,24,24,0,0,1,8.75,2.59A54.83,54.83,0,0,1,200.25,132s0,0,0,.06C200.34,133.93,200.32,135.91,200.25,137.94Z"/><path class="cls-16" d="M203.73,121.56a44.58,44.58,0,0,1-12.12,7c-13.26,5.35-30.49,7.12-43.92,6.47-6.6,14.5-9.27,19.7-11,32.35-6.45-6-11.7-17.13-13.26-25.84a59.1,59.1,0,0,1,1-26.32,39.36,39.36,0,0,1,20.08-24.15,37.74,37.74,0,0,1,4.32-2c8.51-3.29,18.1-3,26.83-.32a32,32,0,0,1,12.14,7.06c6.81,6.15,11,14.48,13.74,20.72C202.47,118.44,203.16,120.17,203.73,121.56Z"/><path class="cls-19" d="M206.53,129.44A40.71,40.71,0,0,0,204,121a29.12,29.12,0,0,0-2.38-4.47,24.51,24.51,0,0,0-12.77-10.41,47,47,0,0,0-4.8-5.75,37,37,0,0,0-20.67-10.9,39.27,39.27,0,0,0-18.78,1.6,37.74,37.74,0,0,1,4.32-2c8.51-3.29,18.1-3,26.83-.32a32,32,0,0,1,12.14,7.06,22,22,0,0,1,9,4.91A31.56,31.56,0,0,1,205.66,115,32.3,32.3,0,0,1,206.53,129.44Z"/><path class="cls-20" d="M155.38,145.75c4.46-2.55,9.09-3.7,15.58-1.33"/><path class="cls-20" d="M185.92,145.57c3.82-2.85,9.48-3.14,12.43,0"/><path class="cls-21" d="M181.31,160.11c.39,2,.18,6.49-.78,8.5"/><ellipse class="cls-22" cx="166.24" cy="158.57" rx="1.84" ry="2.9"/><ellipse class="cls-22" cx="190.29" cy="157.22" rx="1.84" ry="2.9"/><path class="cls-23" d="M179,172.56a14.13,14.13,0,0,1-1.05,1.65,11.42,11.42,0,0,1-5.43,4.23h0a7.09,7.09,0,0,1-3.49.23c-3.76-.67-4.75-4.14-4.93-6.81a14.29,14.29,0,0,1,0-1.44,13.63,13.63,0,0,1,.14-1.8C170.22,171.92,179,172.56,179,172.56Z"/><path class="cls-5" d="M179,172.56a14.13,14.13,0,0,1-1.05,1.65c-3.06,0-9.32-1.61-13.89-3.79a13.63,13.63,0,0,1,.14-1.8C170.22,171.92,179,172.56,179,172.56Z"/><path class="cls-24" d="M172.54,178.43a7.09,7.09,0,0,1-3.49.23c-3.76-.67-4.75-4.14-4.93-6.81a10.24,10.24,0,0,1,8.42,6.58Z"/><path class="cls-25" d="M136.79,141.16a69.13,69.13,0,0,1,5-24.86c6.51-15.55,19.78-22.2,32.65-22.65a35.07,35.07,0,0,1,25.22,9.86s-5-8.91-15-11.47c-6.54-1.68-16.41-2-24.33,1.27-8.16,3.31-18.33,12.5-22,22.21s-5.46,24.83-5.46,24.83Z"/><ellipse class="cls-18" cx="134.64" cy="155.41" rx="12.09" ry="18.32" transform="matrix(0.99, -0.1, 0.1, 0.99, -15.35, 14.76)"/><ellipse class="cls-25" cx="131.42" cy="156.74" rx="7.85" ry="13.81" transform="translate(-21.83 21.27) rotate(-8.55)"/><ellipse class="cls-26" cx="174.52" cy="184.06" rx="6.44" ry="4.01"/><path class="cls-27" d="M142.17,170.65s9.46,12.16,25.91,13.41"/><path class="cls-11" d="M181.58,290.5l-.62,16s-57.83,17.33-67.38,11.85c-4.66-2.68-9-17.42-12.26-31.81-3.4-15.12-5.58-29.84-5.58-29.84l33.9-6.64s0,20.67,1.17,32.62c.41,4.45,1,7.69,1.79,8.22C135.59,292.86,181.58,290.5,181.58,290.5Z"/><path class="cls-8" d="M130.81,282.65c-6.16,2-18,5.09-29.49,3.87-3.4-15.12-5.58-29.84-5.58-29.84l33.9-6.64S129.66,270.7,130.81,282.65Z"/><path class="cls-11" d="M179.93,290.66c8.6-1.84,23.16-6.26,29.2-7.78,4.29-1.08,15.46,4.7,18.41,10.15,1.29,2.38,2.51,15.86-2,14.47-2.24-.7-1.87-6.48-2.57-8.84-.57-1.92-2.39-3.78-5.16-5.38,1.85,4.61,1.78,8.63,1.58,13.61a7.06,7.06,0,0,1-.64,3.2,2.3,2.3,0,0,1-2.7,1.21c-1-.42-1.37-1.69-1.6-2.8a91,91,0,0,1-1.91-12c.08,4.27,0,8.55-.28,12.81-.2,3.26-1.82,5-3.81,4.48-.89-.25-1.25-1.07-1.63-2.15-.6,2.09-2.1,4.4-4,3.52-1.18-.53-1.91-4.79-1.7-9.17a25.66,25.66,0,0,1-12.76,3.51c-4.34.2-8.78-.61-11.39-3.56A76.72,76.72,0,0,1,179.93,290.66Z"/><path class="cls-28" d="M207,311a30.57,30.57,0,0,0-.89-10.31"/><path class="cls-12" d="M125.83,216.51c-2.46-6.93-11.47-21.11-11.47-21.11s-13.75,5.72-18.63,15.43c-8.26,16.44-4.06,63.64-4.06,63.64,11.13,4.66,33.47,4.73,43,3.39C134.65,277.86,130.76,230.36,125.83,216.51Z"/><path class="cls-29" d="M127.58,219.41A305.75,305.75,0,0,1,134,270.5"/><rect class="cls-16" x="27.6" y="320.39" width="394.28" height="9.89"/></g></g></svg>