<svg xmlns="http://www.w3.org/2000/svg" xmlns:xlink="http://www.w3.org/1999/xlink" viewBox="0 0 632.85 374.55"><defs><style>.cls-1,.cls-10,.cls-11,.cls-114,.cls-12,.cls-13,.cls-14,.cls-15,.cls-16,.cls-17,.cls-28,.cls-5,.cls-6,.cls-61,.cls-63,.cls-64,.cls-7,.cls-8,.cls-88,.cls-9,.cls-90{fill:none;}.cls-2{isolation:isolate;}.cls-22,.cls-25,.cls-3{opacity:0.2;}.cls-3{fill:url(#linear-gradient);}.cls-4{opacity:0.29;}.cls-10,.cls-11,.cls-114,.cls-12,.cls-13,.cls-14,.cls-15,.cls-16,.cls-17,.cls-5,.cls-6,.cls-61,.cls-63,.cls-64,.cls-7,.cls-8,.cls-88,.cls-9,.cls-90{stroke-linecap:round;stroke-linejoin:round;}.cls-10,.cls-11,.cls-12,.cls-13,.cls-14,.cls-15,.cls-16,.cls-17,.cls-5,.cls-6,.cls-7,.cls-8,.cls-9{stroke-width:2.16px;}.cls-5{stroke:url(#linear-gradient-2);}.cls-6{stroke:url(#linear-gradient-3);}.cls-7{stroke:url(#linear-gradient-4);}.cls-8{stroke:url(#linear-gradient-5);}.cls-9{stroke:url(#linear-gradient-6);}.cls-10{stroke:url(#linear-gradient-7);}.cls-11{stroke:url(#linear-gradient-8);}.cls-12{stroke:url(#linear-gradient-9);}.cls-13{stroke:url(#linear-gradient-10);}.cls-14{stroke:url(#linear-gradient-11);}.cls-15{stroke:url(#linear-gradient-12);}.cls-16{stroke:url(#linear-gradient-13);}.cls-17{stroke:url(#linear-gradient-14);}.cls-18{fill:url(#linear-gradient-15);}.cls-19{fill:#fff;}.cls-20,.cls-23,.cls-24,.cls-30,.cls-34,.cls-35,.cls-75{opacity:0.38;}.cls-20{fill:url(#linear-gradient-16);}.cls-21{opacity:0.13;fill:url(#linear-gradient-17);}.cls-22{fill:url(#linear-gradient-18);}.cls-23{fill:url(#linear-gradient-19);}.cls-24{fill:url(#linear-gradient-20);}.cls-25{fill:url(#linear-gradient-21);}.cls-26,.cls-27{opacity:0.48;}.cls-26{fill:url(#linear-gradient-22);}.cls-27{fill:url(#linear-gradient-23);}.cls-28{stroke-miterlimit:10;opacity:0.34;stroke:url(#linear-gradient-24);}.cls-29{fill:url(#linear-gradient-25);}.cls-30{fill:url(#linear-gradient-26);}.cls-31{fill:url(#linear-gradient-27);}.cls-32{fill:url(#linear-gradient-28);}.cls-33{fill:url(#linear-gradient-29);}.cls-34{fill:url(#linear-gradient-30);}.cls-35{fill:url(#linear-gradient-31);}.cls-36{fill:url(#linear-gradient-32);}.cls-37{fill:url(#linear-gradient-33);}.cls-38{fill:url(#linear-gradient-34);}.cls-39{fill:url(#New_Gradient_Swatch_15);}.cls-40{fill:url(#New_Gradient_Swatch_15-2);}.cls-41{fill:url(#linear-gradient-35);}.cls-42{fill:url(#linear-gradient-36);}.cls-43{fill:url(#linear-gradient-37);}.cls-44{fill:url(#linear-gradient-38);}.cls-45{fill:url(#linear-gradient-39);}.cls-46{fill:url(#linear-gradient-40);}.cls-47{fill:url(#New_Gradient_Swatch_25);}.cls-48{fill:url(#New_Gradient_Swatch_15-3);}.cls-49{fill:url(#linear-gradient-41);}.cls-50{fill:url(#linear-gradient-42);}.cls-51{fill:url(#New_Gradient_Swatch_23);}.cls-52{fill:url(#New_Gradient_Swatch_15-4);}.cls-53{opacity:0.43;}.cls-54{clip-path:url(#clip-path);}.cls-55,.cls-66,.cls-73,.cls-74,.cls-85{opacity:0.4;}.cls-55,.cls-58,.cls-66,.cls-71,.cls-73,.cls-74,.cls-75,.cls-77,.cls-79,.cls-81,.cls-85,.cls-95{mix-blend-mode:multiply;}.cls-55{fill:url(#New_Gradient_Swatch_15-5);}.cls-56{fill:url(#linear-gradient-43);}.cls-57{fill:url(#linear-gradient-44);}.cls-58,.cls-71,.cls-79{opacity:0.5;}.cls-58{fill:url(#linear-gradient-45);}.cls-59{fill:url(#New_Gradient_Swatch_16);}.cls-60{fill:url(#linear-gradient-46);}.cls-114,.cls-61,.cls-63,.cls-64,.cls-88,.cls-90{stroke:#000;}.cls-61{stroke-width:0.72px;}.cls-62{fill:url(#New_Gradient_Swatch_16-2);}.cls-63{stroke-width:0.97px;}.cls-65{fill:url(#linear-gradient-47);}.cls-66{fill:url(#linear-gradient-48);}.cls-67{fill:url(#linear-gradient-49);}.cls-68{fill:url(#linear-gradient-50);}.cls-69{fill:url(#linear-gradient-51);}.cls-70{fill:url(#linear-gradient-52);}.cls-71{fill:url(#linear-gradient-53);}.cls-72{fill:url(#linear-gradient-54);}.cls-73{fill:url(#linear-gradient-55);}.cls-74{fill:url(#linear-gradient-56);}.cls-75{fill:url(#linear-gradient-57);}.cls-76{fill:url(#linear-gradient-58);}.cls-77{opacity:0.3;fill:url(#linear-gradient-59);}.cls-78{fill:url(#linear-gradient-60);}.cls-79{fill:url(#linear-gradient-61);}.cls-80{fill:url(#linear-gradient-62);}.cls-81{opacity:0.37;fill:url(#linear-gradient-63);}.cls-82{fill:url(#linear-gradient-64);}.cls-83{fill:url(#linear-gradient-65);}.cls-84{fill:url(#linear-gradient-66);}.cls-85{fill:url(#linear-gradient-67);}.cls-86{fill:url(#linear-gradient-68);}.cls-87{fill:url(#linear-gradient-69);}.cls-88{stroke-width:0.74px;}.cls-89{fill:url(#linear-gradient-70);}.cls-90{stroke-width:1.07px;}.cls-91{fill:url(#linear-gradient-71);}.cls-92{fill:url(#linear-gradient-72);}.cls-93{fill:url(#linear-gradient-73);}.cls-94{fill:url(#linear-gradient-74);}.cls-95{opacity:0.26;fill:url(#linear-gradient-75);}.cls-96{fill:url(#linear-gradient-76);}.cls-97{fill:url(#linear-gradient-77);}.cls-98{fill:url(#linear-gradient-78);}.cls-99{fill:url(#New_Gradient_Swatch_16-3);}.cls-100{fill:url(#New_Gradient_Swatch_16-4);}.cls-101{fill:url(#New_Gradient_Swatch_16-5);}.cls-102{fill:url(#linear-gradient-79);}.cls-103{fill:url(#New_Gradient_Swatch_16-6);}.cls-104{fill:url(#linear-gradient-80);}.cls-105{fill:url(#linear-gradient-81);}.cls-106{fill:url(#linear-gradient-82);}.cls-107{fill:url(#linear-gradient-83);}.cls-108{fill:url(#linear-gradient-84);}.cls-109{fill:url(#linear-gradient-85);}.cls-110{fill:url(#linear-gradient-86);}.cls-111{fill:url(#linear-gradient-87);}.cls-112{fill:url(#linear-gradient-88);}.cls-113{fill:url(#linear-gradient-89);}.cls-114{stroke-width:0.96px;}.cls-115{fill:url(#linear-gradient-90);}.cls-116{fill:url(#linear-gradient-91);}.cls-117{fill:url(#linear-gradient-92);}</style><linearGradient id="linear-gradient" x1="8.97" y1="177.37" x2="627.44" y2="177.37" gradientUnits="userSpaceOnUse"><stop offset="0" stop-color="#68beff"/><stop offset="1" stop-color="#90d3fa"/></linearGradient><linearGradient id="linear-gradient-2" x1="298.4" y1="253.15" x2="326.53" y2="262.54" gradientTransform="matrix(0.95, -0.32, 0.32, 0.95, -25.3, 110.03)" gradientUnits="userSpaceOnUse"><stop offset="0" stop-color="#7973e7"/><stop offset="0.99" stop-color="#448cff"/></linearGradient><linearGradient id="linear-gradient-3" x1="533.55" y1="287.01" x2="546.8" y2="291.44" gradientTransform="translate(-28.1 117.6) rotate(-19.8)" xlink:href="#linear-gradient-2"/><linearGradient id="linear-gradient-4" x1="86.27" y1="-33.37" x2="114.4" y2="-23.98" gradientTransform="translate(-28.1 117.6) rotate(-19.8)" xlink:href="#linear-gradient-2"/><linearGradient id="linear-gradient-5" x1="-42.75" y1="201.72" x2="-23.4" y2="208.18" gradientTransform="translate(-28.1 117.6) rotate(-19.8)" xlink:href="#linear-gradient-2"/><linearGradient id="linear-gradient-6" x1="340.1" y1="24.17" x2="354.77" y2="29.07" gradientTransform="translate(-28.1 117.6) rotate(-19.8)" xlink:href="#linear-gradient-2"/><linearGradient id="linear-gradient-7" x1="58.45" y1="90.54" x2="70.87" y2="94.68" gradientTransform="translate(-28.1 117.6) rotate(-19.8)" xlink:href="#linear-gradient-2"/><linearGradient id="linear-gradient-8" x1="468.28" y1="150.33" x2="490.67" y2="157.81" gradientTransform="translate(-28.1 117.6) rotate(-19.8)" xlink:href="#linear-gradient-2"/><linearGradient id="linear-gradient-9" x1="254.05" y1="37.43" x2="296.3" y2="35.54" gradientTransform="matrix(1, 0.02, -0.02, 1, -67.15, -4.02)" xlink:href="#linear-gradient-2"/><linearGradient id="linear-gradient-10" x1="155.87" y1="143.19" x2="198.12" y2="141.3" gradientTransform="matrix(1, 0.02, -0.02, 1, -67.15, -4.02)" xlink:href="#linear-gradient-2"/><linearGradient id="linear-gradient-11" x1="99.65" y1="260.33" x2="141.9" y2="258.44" gradientTransform="matrix(1, 0.02, -0.02, 1, -67.15, -4.02)" xlink:href="#linear-gradient-2"/><linearGradient id="linear-gradient-12" x1="479.68" y1="35.39" x2="521.93" y2="33.5" gradientTransform="matrix(1, 0.02, -0.02, 1, -67.15, -4.02)" xlink:href="#linear-gradient-2"/><linearGradient id="linear-gradient-13" x1="638.2" y1="47.49" x2="680.45" y2="45.6" gradientTransform="matrix(1, 0.02, -0.02, 1, -67.15, -4.02)" xlink:href="#linear-gradient-2"/><linearGradient id="linear-gradient-14" x1="663.43" y1="257.27" x2="705.68" y2="255.38" gradientTransform="matrix(1, 0.02, -0.02, 1, -67.15, -4.02)" xlink:href="#linear-gradient-2"/><linearGradient id="linear-gradient-15" x1="111.08" y1="169.86" x2="408.46" y2="169.86" gradientTransform="matrix(1, 0, 0, 1, 0, 0)" xlink:href="#linear-gradient-2"/><linearGradient id="linear-gradient-16" x1="150.6" y1="130.85" x2="219.82" y2="130.85" xlink:href="#linear-gradient"/><linearGradient id="linear-gradient-17" x1="150.6" y1="194.89" x2="228.91" y2="194.89" xlink:href="#linear-gradient"/><linearGradient id="linear-gradient-18" x1="248.24" y1="205.37" x2="305.42" y2="205.37" xlink:href="#linear-gradient"/><linearGradient id="linear-gradient-19" x1="150.6" y1="229.92" x2="228.91" y2="229.92" xlink:href="#linear-gradient"/><linearGradient id="linear-gradient-20" x1="150.6" y1="242.95" x2="228.91" y2="242.95" xlink:href="#linear-gradient"/><linearGradient id="linear-gradient-21" x1="290.37" y1="191.79" x2="352.33" y2="191.79" gradientTransform="matrix(-1, 0, 0, 1, 668.55, 0)" xlink:href="#linear-gradient"/><linearGradient id="linear-gradient-22" x1="167.9" y1="107.34" x2="171.81" y2="107.34" gradientTransform="matrix(1, 0, 0, 1, 0, 0)" xlink:href="#linear-gradient-2"/><linearGradient id="linear-gradient-23" x1="198.36" y1="124.48" x2="202.28" y2="124.48" gradientTransform="matrix(1, 0, 0, 1, 0, 0)" xlink:href="#linear-gradient-2"/><linearGradient id="linear-gradient-24" x1="180.23" y1="135.78" x2="189.6" y2="135.78" xlink:href="#linear-gradient"/><linearGradient id="linear-gradient-25" x1="335.11" y1="130.91" x2="345.78" y2="130.91" gradientUnits="userSpaceOnUse"><stop offset="0" stop-color="#9ab8ff"/><stop offset="0.99" stop-color="#65d1ff"/></linearGradient><linearGradient id="linear-gradient-26" x1="308.92" y1="130.91" x2="371.97" y2="130.91" xlink:href="#linear-gradient"/><linearGradient id="linear-gradient-27" x1="365.88" y1="107.41" x2="373.19" y2="107.41" xlink:href="#linear-gradient-25"/><linearGradient id="linear-gradient-28" x1="306.15" y1="108.83" x2="313.45" y2="108.83" xlink:href="#linear-gradient-25"/><linearGradient id="linear-gradient-29" x1="336.79" y1="168.67" x2="344.1" y2="168.67" xlink:href="#linear-gradient-25"/><linearGradient id="linear-gradient-30" x1="234.84" y1="102.83" x2="295.37" y2="102.83" xlink:href="#linear-gradient"/><linearGradient id="linear-gradient-31" x1="234.84" y1="126.04" x2="295.32" y2="126.04" xlink:href="#linear-gradient"/><linearGradient id="linear-gradient-32" x1="114.47" y1="350.36" x2="161.76" y2="350.36" gradientUnits="userSpaceOnUse"><stop offset="0.01" stop-color="#d2e7ff"/><stop offset="1" stop-color="#f7f7f7"/></linearGradient><linearGradient id="linear-gradient-33" x1="114.47" y1="350.36" x2="163.63" y2="350.36" gradientUnits="userSpaceOnUse"><stop offset="0" stop-color="#492b97"/><stop offset="1" stop-color="#87007a"/></linearGradient><linearGradient id="linear-gradient-34" x1="51.57" y1="350.36" x2="120.6" y2="350.36" gradientUnits="userSpaceOnUse"><stop offset="0" stop-color="#8724ad"/><stop offset="1" stop-color="#495bca"/></linearGradient><linearGradient id="New_Gradient_Swatch_15" x1="109.29" y1="348.73" x2="109.29" y2="359.06" gradientUnits="userSpaceOnUse"><stop offset="0" stop-color="#ffaac6"/><stop offset="1" stop-color="#ff7cd8"/></linearGradient><linearGradient id="New_Gradient_Swatch_15-2" x1="66.1" y1="348.73" x2="66.1" y2="359.06" xlink:href="#New_Gradient_Swatch_15"/><linearGradient id="linear-gradient-35" x1="114.47" y1="333.57" x2="161.76" y2="333.57" xlink:href="#linear-gradient-32"/><linearGradient id="linear-gradient-36" x1="114.47" y1="333.57" x2="163.63" y2="333.57" gradientUnits="userSpaceOnUse"><stop offset="0" stop-color="#8434f8"/><stop offset="1" stop-color="#c200db"/></linearGradient><linearGradient id="linear-gradient-37" x1="51.57" y1="333.57" x2="120.6" y2="333.57" gradientUnits="userSpaceOnUse"><stop offset="0" stop-color="#c238db"/><stop offset="1" stop-color="#846ff8"/></linearGradient><linearGradient id="linear-gradient-38" x1="102.8" y1="330.92" x2="103.09" y2="340.88" gradientUnits="userSpaceOnUse"><stop offset="0" stop-color="#ffd452"/><stop offset="1" stop-color="#ffab20"/></linearGradient><linearGradient id="linear-gradient-39" x1="78.39" y1="329.39" x2="78.39" y2="337.89" xlink:href="#linear-gradient-38"/><linearGradient id="linear-gradient-40" x1="114.47" y1="316.55" x2="161.76" y2="316.55" xlink:href="#linear-gradient-32"/><linearGradient id="New_Gradient_Swatch_25" x1="114.47" y1="316.55" x2="163.63" y2="316.55" gradientUnits="userSpaceOnUse"><stop offset="0" stop-color="#cf58c3"/><stop offset="1" stop-color="#cf2ad5"/></linearGradient><linearGradient id="New_Gradient_Swatch_15-3" x1="51.57" y1="316.55" x2="120.6" y2="316.55" xlink:href="#New_Gradient_Swatch_15"/><linearGradient id="linear-gradient-41" x1="70.09" y1="313.72" x2="70.09" y2="323.55" xlink:href="#linear-gradient-37"/><linearGradient id="linear-gradient-42" x1="489.39" y1="289.6" x2="490.7" y2="347.2" xlink:href="#linear-gradient-34"/><linearGradient id="New_Gradient_Swatch_23" x1="429.42" y1="127.66" x2="447.56" y2="168.16" gradientUnits="userSpaceOnUse"><stop offset="0" stop-color="#f75c00"/><stop offset="1" stop-color="#f73300"/></linearGradient><linearGradient id="New_Gradient_Swatch_15-4" x1="447.92" y1="192.8" x2="492.16" y2="321.04" xlink:href="#New_Gradient_Swatch_15"/><clipPath id="clip-path"><path class="cls-1" d="M388.66,250.24c1.42,0,42.94,67.59,42.94,67.59L528,303l-27.39-56.39L539.81,230s-4.14-12.38-16.57-29.43c-17.62-24.16-51.84-21.66-82.38-9.14s-46.52,29.38-50.78,58.85"/></clipPath><linearGradient id="New_Gradient_Swatch_15-5" x1="436.95" y1="171.15" x2="489.35" y2="323.05" xlink:href="#New_Gradient_Swatch_15"/><linearGradient id="linear-gradient-43" x1="438.86" y1="215.89" x2="451.23" y2="185.95" gradientUnits="userSpaceOnUse"><stop offset="0" stop-color="#d738db"/><stop offset="1" stop-color="#9f6fd8"/></linearGradient><linearGradient id="linear-gradient-44" x1="434.41" y1="167.26" x2="448.12" y2="200.41" gradientUnits="userSpaceOnUse"><stop offset="0" stop-color="#ffd0bf"/><stop offset="1" stop-color="#ffb490"/></linearGradient><linearGradient id="linear-gradient-45" x1="433.72" y1="167.57" x2="447.4" y2="200.65" xlink:href="#linear-gradient-44"/><linearGradient id="New_Gradient_Swatch_16" x1="420.63" y1="141.19" x2="434.49" y2="163.27" gradientUnits="userSpaceOnUse"><stop offset="0" stop-color="#ff7504"/><stop offset="1" stop-color="#ff4c01"/></linearGradient><linearGradient id="linear-gradient-46" x1="423.82" y1="157.27" x2="450.27" y2="210.34" xlink:href="#linear-gradient-44"/><linearGradient id="New_Gradient_Swatch_16-2" x1="412.87" y1="140.47" x2="424.37" y2="165.26" xlink:href="#New_Gradient_Swatch_16"/><linearGradient id="linear-gradient-47" x1="238.65" y1="200.83" x2="224.65" y2="351.48" xlink:href="#linear-gradient-38"/><linearGradient id="linear-gradient-48" x1="245.24" y1="201.44" x2="231.24" y2="352.09" xlink:href="#linear-gradient-38"/><linearGradient id="linear-gradient-49" x1="175.33" y1="194.95" x2="161.33" y2="345.59" gradientUnits="userSpaceOnUse"><stop offset="0" stop-color="#ffbb52"/><stop offset="1" stop-color="#ff9220"/></linearGradient><linearGradient id="linear-gradient-50" x1="304.58" y1="206.96" x2="290.58" y2="357.6" xlink:href="#linear-gradient-49"/><linearGradient id="linear-gradient-51" x1="177.91" y1="249.62" x2="177.91" y2="346.48" xlink:href="#linear-gradient-44"/><linearGradient id="linear-gradient-52" x1="244.21" y1="203.84" x2="239.82" y2="217.65" xlink:href="#linear-gradient-44"/><linearGradient id="linear-gradient-53" x1="230.65" y1="206.77" x2="256.48" y2="206.77" xlink:href="#linear-gradient-44"/><linearGradient id="linear-gradient-54" x1="362.32" y1="369.13" x2="361.76" y2="264.41" gradientTransform="matrix(1, 0, 0, 1, 0, 0)" xlink:href="#linear-gradient-2"/><linearGradient id="linear-gradient-55" x1="383.94" y1="369.01" x2="383.38" y2="264.29" gradientTransform="matrix(1, 0, 0, 1, 0, 0)" xlink:href="#linear-gradient-2"/><linearGradient id="linear-gradient-56" x1="340.9" y1="369.24" x2="340.34" y2="264.52" gradientTransform="matrix(1, 0, 0, 1, 0, 0)" xlink:href="#linear-gradient-2"/><linearGradient id="linear-gradient-57" x1="346.12" y1="369.22" x2="345.56" y2="264.49" gradientTransform="matrix(1, 0, 0, 1, 0, 0)" xlink:href="#linear-gradient-2"/><linearGradient id="linear-gradient-58" x1="368.97" y1="333.35" x2="415.43" y2="370.26" xlink:href="#linear-gradient-44"/><linearGradient id="linear-gradient-59" x1="368.97" y1="333.35" x2="415.43" y2="370.26" xlink:href="#linear-gradient-44"/><linearGradient id="linear-gradient-60" x1="346.48" y1="267.07" x2="350" y2="280.49" xlink:href="#linear-gradient-44"/><linearGradient id="linear-gradient-61" x1="346.48" y1="267.07" x2="350" y2="280.49" xlink:href="#linear-gradient-44"/><linearGradient id="linear-gradient-62" x1="10.2" y1="366.71" x2="626.21" y2="366.71" gradientUnits="userSpaceOnUse"><stop offset="0" stop-color="#7d94ff"/><stop offset="0.99" stop-color="#8caaff"/></linearGradient><linearGradient id="linear-gradient-63" x1="10.58" y1="366.71" x2="626.21" y2="366.71" xlink:href="#linear-gradient-62"/><linearGradient id="linear-gradient-64" x1="315.13" y1="354.9" x2="386.16" y2="354.9" xlink:href="#linear-gradient-37"/><linearGradient id="linear-gradient-65" x1="332.8" y1="372.5" x2="223.06" y2="292.13" gradientUnits="userSpaceOnUse"><stop offset="0" stop-color="#846ff8"/><stop offset="1" stop-color="#c96cdb"/></linearGradient><linearGradient id="linear-gradient-66" x1="338.59" y1="365.58" x2="302.02" y2="284.02" gradientUnits="userSpaceOnUse"><stop offset="0" stop-color="#e370ff"/><stop offset="1" stop-color="#a5a7ff"/></linearGradient><linearGradient id="linear-gradient-67" x1="277.57" y1="342.55" x2="248.02" y2="311.02" gradientTransform="translate(355.79 -80.58) rotate(52.02)" xlink:href="#linear-gradient-37"/><linearGradient id="linear-gradient-68" x1="254.1" y1="171.18" x2="236.94" y2="217.64" xlink:href="#linear-gradient-44"/><linearGradient id="linear-gradient-69" x1="222.46" y1="168.45" x2="290.25" y2="168.45" gradientUnits="userSpaceOnUse"><stop offset="0" stop-color="#19285a"/><stop offset="1" stop-color="#401cbe"/></linearGradient><linearGradient id="linear-gradient-70" x1="236.45" y1="193.59" x2="276.3" y2="193.59" gradientTransform="matrix(1, 0, 0, 1, 0, 0)" xlink:href="#linear-gradient-2"/><linearGradient id="linear-gradient-71" x1="422.93" y1="264.24" x2="434.52" y2="277.34" xlink:href="#linear-gradient-38"/><linearGradient id="linear-gradient-72" x1="471.76" y1="271.42" x2="488.6" y2="271.42" xlink:href="#linear-gradient-32"/><linearGradient id="linear-gradient-73" x1="484.2" y1="268.96" x2="520.58" y2="306.77" xlink:href="#linear-gradient-44"/><linearGradient id="linear-gradient-74" x1="585.57" y1="364.87" x2="529.47" y2="316.25" gradientTransform="matrix(1, 0, 0, 1, 0, 0)" xlink:href="#linear-gradient-2"/><linearGradient id="linear-gradient-75" x1="583.98" y1="363.49" x2="549.42" y2="333.54" gradientTransform="matrix(1, 0, 0, 1, 0, 0)" xlink:href="#linear-gradient-2"/><linearGradient id="linear-gradient-76" x1="471.11" y1="350.36" x2="520.27" y2="350.36" gradientUnits="userSpaceOnUse"><stop offset="0.01" stop-color="#44c7ff"/><stop offset="1" stop-color="#79aee7"/></linearGradient><linearGradient id="linear-gradient-77" x1="411.31" y1="350.36" x2="475.22" y2="350.36" xlink:href="#linear-gradient-32"/><linearGradient id="linear-gradient-78" x1="408.2" y1="350.36" x2="477.23" y2="350.36" xlink:href="#linear-gradient-37"/><linearGradient id="New_Gradient_Swatch_16-3" x1="465.93" y1="347.53" x2="465.93" y2="361.65" xlink:href="#New_Gradient_Swatch_16"/><linearGradient id="New_Gradient_Swatch_16-4" x1="422.73" y1="347.53" x2="422.73" y2="361.65" xlink:href="#New_Gradient_Swatch_16"/><linearGradient id="New_Gradient_Swatch_16-5" x1="471.11" y1="333.57" x2="520.27" y2="333.57" xlink:href="#New_Gradient_Swatch_16"/><linearGradient id="linear-gradient-79" x1="411.31" y1="333.57" x2="475.22" y2="333.57" xlink:href="#linear-gradient-32"/><linearGradient id="New_Gradient_Swatch_16-6" x1="408.2" y1="333.57" x2="477.23" y2="333.57" xlink:href="#New_Gradient_Swatch_16"/><linearGradient id="linear-gradient-80" x1="459.6" y1="330.28" x2="459.6" y2="342.64" gradientUnits="userSpaceOnUse"><stop offset="0.01" stop-color="#448cff"/><stop offset="1" stop-color="#7973e7"/></linearGradient><linearGradient id="linear-gradient-81" x1="435.02" y1="330.28" x2="435.02" y2="342.64" xlink:href="#linear-gradient-80"/><linearGradient id="linear-gradient-82" x1="553.11" y1="281.58" x2="551.26" y2="328.44" gradientUnits="userSpaceOnUse"><stop offset="0" stop-color="#5ea438"/><stop offset="1" stop-color="#09790f"/></linearGradient><linearGradient id="linear-gradient-83" x1="560.38" y1="167.73" x2="560.38" y2="140.03" gradientUnits="userSpaceOnUse"><stop offset="0" stop-color="#acaeff"/><stop offset="0.99" stop-color="#77c7ff"/></linearGradient><linearGradient id="linear-gradient-84" x1="560.38" y1="142.11" x2="560.38" y2="180.31" xlink:href="#linear-gradient-83"/><linearGradient id="linear-gradient-85" x1="534.1" y1="136.01" x2="534.1" y2="69.61" gradientUnits="userSpaceOnUse"><stop offset="0" stop-color="#799ee7"/><stop offset="0.99" stop-color="#44b7ff"/></linearGradient><linearGradient id="linear-gradient-86" x1="549.03" y1="136.01" x2="549.03" y2="75.17" gradientUnits="userSpaceOnUse"><stop offset="0" stop-color="#a2bdff"/><stop offset="0.99" stop-color="#6dd6ff"/></linearGradient><linearGradient id="linear-gradient-87" x1="563.47" y1="136.01" x2="563.47" y2="81.11" xlink:href="#linear-gradient-85"/><linearGradient id="linear-gradient-88" x1="582.6" y1="136.23" x2="582.6" y2="89.09" gradientTransform="translate(39.42 -126.24) rotate(12.8)" xlink:href="#linear-gradient-86"/><linearGradient id="linear-gradient-89" x1="382.26" y1="250.01" x2="383.76" y2="265.5" xlink:href="#linear-gradient-44"/><linearGradient id="linear-gradient-90" x1="349" y1="196.48" x2="356.11" y2="219.07" gradientUnits="userSpaceOnUse"><stop offset="0" stop-color="#9e511c"/><stop offset="1" stop-color="#843d00"/></linearGradient><linearGradient id="linear-gradient-91" x1="337.03" y1="229.61" x2="347.9" y2="282.99" xlink:href="#linear-gradient-44"/><linearGradient id="linear-gradient-92" x1="303.33" y1="210.45" x2="320.45" y2="225.75" xlink:href="#linear-gradient-90"/></defs><g class="cls-2"><g id="Layer_2" data-name="Layer 2"><g id="OBJECTS"><path class="cls-3" d="M9.5,237c-3-34.48,6.66-72.49,33.09-96.26,30.25-27.19,75.52-14.62,106.19-39.94C169,84.08,176.11,55.25,196.2,37,218.43,16.78,247.12,3.52,277.08.61,320.14-3.56,364.77,13.76,393.58,46c16.28,18.22,27.69,40.77,46.19,56.73,26.59,23,63.31,28.78,97,38.76,59,17.49,105.18,69.57,86.46,134.81-12.14,42.26-53.43,74.37-97.38,75.72-39.15,1.2-75.46-19.31-114-26.55-39.52-7.44-82.37-.44-121.11,8.67-35.71,8.4-72.61,17.57-109.74,19.94-35.62,2.27-79.12-.82-109.65-21.21C36.14,309.34,13.28,279.81,9.5,237Z"/><g class="cls-4"><circle class="cls-5" cx="353.23" cy="254.37" r="13.74" transform="matrix(1, -0.02, 0.02, 1, -5, 7.09)"/><path class="cls-6" d="M583.67,204.77a5.9,5.9,0,1,1-7.56-3.55A5.92,5.92,0,0,1,583.67,204.77Z"/><path class="cls-7" d="M69.53,52A13.74,13.74,0,1,1,51.94,43.7,13.75,13.75,0,0,1,69.53,52Z"/><path class="cls-8" d="M18.77,318.55a9.11,9.11,0,1,1-11.66-5.49A9.1,9.1,0,0,1,18.77,318.55Z"/><path class="cls-9" d="M314.07,22.72a6.65,6.65,0,1,1-8.5-4A6.64,6.64,0,0,1,314.07,22.72Z"/><path class="cls-10" d="M69.25,181a5.47,5.47,0,1,1-7-3.29A5.47,5.47,0,0,1,69.25,181Z"/><path class="cls-11" d="M485.31,96.53a10.72,10.72,0,1,1-13.72-6.46A10.71,10.71,0,0,1,485.31,96.53Z"/><polyline class="cls-12" points="187.04 35.63 193.62 40.59 200.42 35.92 207.01 40.88 213.8 36.21 220.4 41.16 227.2 36.49"/><polyline class="cls-13" points="86.64 139.27 93.22 144.22 100.02 139.56 106.61 144.51 113.4 139.84 120 144.79 126.79 140.13"/><polyline class="cls-14" points="27.94 255.18 34.52 260.13 41.32 255.46 47.91 260.42 54.7 255.75 61.3 260.7 68.1 256.04"/><polyline class="cls-15" points="412.64 38.4 419.23 43.35 426.02 38.68 432.61 43.64 439.41 38.97 446 43.92 452.8 39.26"/><polyline class="cls-16" points="570.86 53.87 577.45 58.83 584.24 54.16 590.83 59.11 597.63 54.44 604.22 59.4 611.02 54.73"/><polyline class="cls-17" points="591.61 264.13 598.2 269.08 604.99 264.41 611.58 269.37 618.38 264.7 624.97 269.65 631.77 264.99"/></g><rect class="cls-18" x="111.08" y="66.94" width="297.38" height="205.84" rx="13.34"/><rect class="cls-19" x="118.92" y="75.18" width="281.7" height="189.37" rx="8.53"/><polygon class="cls-20" points="189.6 119.21 189.6 100.44 150.6 100.44 150.6 152.05 180.82 152.05 180.82 161.25 219.82 161.25 219.82 119.21 189.6 119.21"/><rect class="cls-21" x="150.6" y="169.08" width="78.31" height="51.61"/><rect class="cls-22" x="248.24" y="190.04" width="57.17" height="30.65"/><rect class="cls-23" x="150.6" y="225.73" width="78.31" height="8.38"/><rect class="cls-24" x="150.6" y="238.76" width="78.31" height="8.38"/><polygon class="cls-25" points="378.18 164.57 378.18 218.9 316.22 219.01 378.18 164.57"/><path class="cls-26" d="M171.81,107.34a2,2,0,1,1-1.95-2A2,2,0,0,1,171.81,107.34Z"/><path class="cls-27" d="M202.28,124.48a2,2,0,1,1-2-2A2,2,0,0,1,202.28,124.48Z"/><polyline class="cls-28" points="180.73 152.45 180.73 119.6 189.6 119.61"/><path class="cls-29" d="M345.78,130.91a5.34,5.34,0,1,1-5.33-5.33A5.34,5.34,0,0,1,345.78,130.91Z"/><path class="cls-30" d="M356.62,130.65c10.86-10.14,16.77-19.42,14-23-2.41-3.13-10.71-1-21.16,4.9-1.72-11.86-5.08-19.75-9-19.75S333,101,331.34,113.14a81,81,0,0,0-8.34-3.85c-7-2.71-11.83-2.94-13.47-.66s.09,6.76,4.89,12.58a89.1,89.1,0,0,0,9.86,10,89.2,89.2,0,0,0-9.53,10.28c-4.62,6-6.21,10.49-4.49,12.73a4.61,4.61,0,0,0,3.84,1.43c3.93,0,10.12-2.3,17.32-6.35,1.72,11.86,5.08,19.76,9,19.76s7.41-8.15,9.1-20.33c7.34,3.88,13.64,6.06,17.68,6.06,1.95,0,3.37-.5,4.13-1.56C374,149.52,367.81,140.43,356.62,130.65Zm10.22-23.76a3.9,3.9,0,0,1,3.24,1.18c2.47,3.2-3.61,12.36-14,22.11-1.71-1.48-3.54-3-5.46-4.47-.16-4.43-.51-8.59-1-12.37C356.8,109.27,363.07,106.89,366.84,106.89Zm-20.55,31.6q-2.84,2.17-5.66,4.13c-1.91-1.24-3.84-2.55-5.78-4-1.32-.95-2.62-1.92-3.88-2.9q-.09-2.4-.09-4.86c0-1.58,0-3.13.08-4.67,1.19-1,2.4-1.95,3.64-2.9q2.85-2.19,5.66-4.14c1.92,1.25,3.85,2.56,5.78,4q2,1.44,3.88,2.91c.06,1.59.09,3.21.09,4.85s0,3.13-.08,4.67C348.75,136.55,347.53,137.52,346.29,138.49Zm3.61-2c-.16,3.9-.48,7.63-.93,11.06-2.48-1.33-5.07-2.85-7.7-4.53,1.79-1.26,3.61-2.59,5.44-4C347.8,138.19,348.86,137.35,349.9,136.5ZM340,143.05c-2.75,1.88-5.45,3.57-8,5-.48-3.53-.82-7.39-1-11.44q1.68,1.31,3.45,2.57Q337.26,141.26,340,143.05Zm-9.77-7.83c-1.71-1.35-3.36-2.71-4.93-4.06,1.56-1.45,3.21-2.89,4.93-4.33q-.06,2-.06,4.08C330.19,132.37,330.21,133.81,330.25,135.22Zm.74-9.9c.16-3.91.48-7.63.93-11.08,2.51,1.36,5.09,2.88,7.71,4.55q-2.7,1.89-5.45,4C333.1,123.63,332,124.47,331,125.32Zm9.89-6.54c2.74-1.88,5.44-3.58,8-5.06.48,3.54.82,7.39,1,11.44q-1.68-1.29-3.45-2.57C344.58,121.25,342.73,120,340.88,118.78Zm9.76,7.83c1.71,1.35,3.35,2.71,4.91,4.06-1.55,1.43-3.19,2.88-4.91,4.32q.06-2,.06-4.08C350.7,129.45,350.68,128,350.64,126.61ZM340.45,93.49c3.53,0,6.69,8,8.34,19.45-2.73,1.57-5.6,3.39-8.55,5.42-2.79-1.8-5.55-3.42-8.22-4.85C333.65,101.72,336.85,93.49,340.45,93.49ZM315,120.77c-4.52-5.48-6.29-9.75-4.86-11.73s6-1.65,12.66.9a78.87,78.87,0,0,1,8.49,3.93c-.49,3.7-.82,7.75-1,12-1.92,1.59-3.76,3.19-5.49,4.79A88.72,88.72,0,0,1,315,120.77Zm-4.14,33c-1.49-1.94.14-6.27,4.48-11.89a88,88,0,0,1,9.52-10.24c1.73,1.5,3.56,3,5.47,4.48.16,4.43.51,8.6,1,12.38C321.2,154.2,313,156.55,310.81,153.76Zm29.64,14.57c-3.54,0-6.7-8-8.35-19.45,2.73-1.57,5.6-3.39,8.55-5.43,2.83,1.83,5.59,3.47,8.22,4.88C347.24,160.12,344,168.33,340.45,168.33Zm30.35-15.54c-2.09,2.91-10.63.7-21.15-4.86.49-3.69.82-7.73,1-12q2.91-2.4,5.48-4.77C366.8,140.54,373.17,149.51,370.8,152.79Z"/><circle class="cls-31" cx="369.54" cy="107.41" r="3.65"/><path class="cls-32" d="M313.45,108.83a3.65,3.65,0,1,1-3.65-3.65A3.64,3.64,0,0,1,313.45,108.83Z"/><circle class="cls-33" cx="340.45" cy="168.67" r="3.65"/><path class="cls-34" d="M243.23,108.18c-.12.16-.27.35-.46.57a5.67,5.67,0,0,1-.66.63,4.83,4.83,0,0,1-.77.5,1.81,1.81,0,0,1-.83.2,1.2,1.2,0,0,1-.84-.31,2.59,2.59,0,0,1-.57-.92,3.75,3.75,0,0,1-.45.42,3.92,3.92,0,0,1-.58.39,3.23,3.23,0,0,1-.66.29,2.35,2.35,0,0,1-.68.11,1.78,1.78,0,0,1-.71-.15,1.81,1.81,0,0,1-.6-.42,2.13,2.13,0,0,1-.43-.68,2.57,2.57,0,0,1-.15-.9,4.74,4.74,0,0,1,.15-1.16,8.16,8.16,0,0,1,.5-1.28,6.93,6.93,0,0,1,.71-1.19,5.43,5.43,0,0,1,.84-.88,4,4,0,0,1,1-.6,2.51,2.51,0,0,1,1-.22.43.43,0,0,1,.27.07.46.46,0,0,1,.16.15l.13.17a.37.37,0,0,0,.15.13.58.58,0,0,0,.19,0l.19,0h.34l.21,0a.4.4,0,0,1,.18.1.42.42,0,0,1,.11.21,1.3,1.3,0,0,1,0,.38,4.91,4.91,0,0,1-.08.8c-.05.29-.11.59-.17.9s-.14.65-.22,1a4.49,4.49,0,0,0-.13,1,1.57,1.57,0,0,0,.07.54.26.26,0,0,0,.27.2.8.8,0,0,0,.33-.08,2.16,2.16,0,0,0,.35-.21,3.05,3.05,0,0,0,.36-.29,2.57,2.57,0,0,0,.33-.33,10.41,10.41,0,0,0,.75-.91Zm-6.47-.59a2.43,2.43,0,0,0,0,.38,1,1,0,0,0,.1.32.55.55,0,0,0,.18.24.49.49,0,0,0,.28.08.68.68,0,0,0,.51-.24,2.45,2.45,0,0,0,.39-.58,4.71,4.71,0,0,0,.27-.71,3.75,3.75,0,0,0,.13-.61l.56-2.45a1.35,1.35,0,0,0-.6.16,2.32,2.32,0,0,0-.55.41,3.51,3.51,0,0,0-.48.6,4.88,4.88,0,0,0-.43.83,5.67,5.67,0,0,0-.3.87A3,3,0,0,0,236.76,107.59Zm13.29-.68h-1.69a1.33,1.33,0,0,1-.42-.06.82.82,0,0,1-.31-.16.76.76,0,0,1-.18-.23.62.62,0,0,1-.06-.26.52.52,0,0,1,.07-.27.69.69,0,0,1,.18-.24,1.2,1.2,0,0,1,.32-.16,1.38,1.38,0,0,1,.43-.07h1.66v-1.71a1.12,1.12,0,0,1,.07-.38.84.84,0,0,1,.2-.28.76.76,0,0,1,.26-.18.72.72,0,0,1,.29-.06.64.64,0,0,1,.44.18.78.78,0,0,1,.19.57v1.86h1.88a.77.77,0,0,1,.58.2.6.6,0,0,1,.18.43.72.72,0,0,1-.06.29.8.8,0,0,1-.18.27.88.88,0,0,1-.66.26H251.5v1.68a1.2,1.2,0,0,1-.07.44.91.91,0,0,1-.16.31.8.8,0,0,1-.23.19.64.64,0,0,1-.54,0,.76.76,0,0,1-.23-.18,1.06,1.06,0,0,1-.16-.3,1.44,1.44,0,0,1-.06-.43Zm13-3a7.25,7.25,0,0,1,.77-.83,1.08,1.08,0,0,1,.7-.32,1.57,1.57,0,0,1,.79.2,1.8,1.8,0,0,1,.59.51,2.45,2.45,0,0,1,.37.74,3.16,3.16,0,0,1,.13.87c0,.26,0,.5,0,.73a5.07,5.07,0,0,1-.11.68,5,5,0,0,1-.22.65,4.17,4.17,0,0,1-.37.68l.55-.31a6.32,6.32,0,0,0,.56-.33c.19-.13.38-.26.57-.41a6.87,6.87,0,0,0,.59-.53l.58,1.25a6.58,6.58,0,0,1-1.67,1.15,7,7,0,0,1-.9.36c-.32.1-.65.19-1,.27a1.77,1.77,0,0,1-.35.26l-.44.23-.54.24h-.19a11.93,11.93,0,0,1-1.27,0,5.21,5.21,0,0,1-1.14-.4c-.29-.18-.57-.37-.83-.57q0-.61.09-1.38c0-.45.09-1,.16-1.63a20.5,20.5,0,0,1,.29-2.09q.06-.75.18-1.65c.08-.46.18-1,.31-1.73a12.83,12.83,0,0,1,.48-1.92,11.4,11.4,0,0,1,.68-1.56,4.26,4.26,0,0,1,.82-1.1,1.34,1.34,0,0,1,.95-.41,1.88,1.88,0,0,1,.92.19,1.35,1.35,0,0,1,.53.53,2.16,2.16,0,0,1,.25.79,7.32,7.32,0,0,1,.06,1,4.65,4.65,0,0,1-.26,1.47,9.27,9.27,0,0,1-.7,1.51,15.57,15.57,0,0,1-1,1.48c-.36.48-.71.93-1.06,1.36Zm.68.54a1.42,1.42,0,0,0-1,.45,2.39,2.39,0,0,0-.4.61c-.23.47-.31.76-.26.87s0,.31-.1.9c0,.23-.05.43-.07.6s-.05.39-.07.57l.5.13a1.41,1.41,0,0,0,.46,0,2.45,2.45,0,0,1,.46,0,.8.8,0,0,0,.47-.15,1.48,1.48,0,0,0,.37-.41,2.42,2.42,0,0,0,.29-.58,4.87,4.87,0,0,0,.2-.68c0-.23.08-.47.11-.7a4.84,4.84,0,0,0,0-.63,2,2,0,0,0,0-.36.71.71,0,0,0-.15-.3.77.77,0,0,0-.31-.21A1.3,1.3,0,0,0,263.71,104.5Zm.74-6.87s0-.07,0-.13a.83.83,0,0,0-.06-.21.42.42,0,0,0-.11-.18.25.25,0,0,0-.2-.09.41.41,0,0,0-.31.22,2.55,2.55,0,0,0-.32.58,7.19,7.19,0,0,0-.31.84c-.1.32-.19.66-.29,1s-.18.7-.25,1.07-.15.7-.22,1-.13.61-.18.88-.1.49-.14.65l.45-.81c.17-.28.34-.58.51-.88s.34-.62.5-.94a9.71,9.71,0,0,0,.44-1,9.16,9.16,0,0,0,.33-1A6.38,6.38,0,0,0,264.45,97.63Zm11.37,9.54a1,1,0,0,1-.28,0,.89.89,0,0,1-.25-.14.74.74,0,0,1-.17-.25.89.89,0,0,1-.07-.38.81.81,0,0,1,.11-.46.72.72,0,0,1,.31-.26,1.34,1.34,0,0,1,.44-.12c.17,0,.35,0,.54,0h5.48a.53.53,0,0,1,.23,0,.42.42,0,0,1,.15.11.35.35,0,0,1,.07.15,1,1,0,0,1,0,.17,1.53,1.53,0,0,1-.07.49.83.83,0,0,1-.23.38,1.05,1.05,0,0,1-.44.26,1.91,1.91,0,0,1-.68.1Zm0,2.33a1,1,0,0,1-.28,0,.73.73,0,0,1-.25-.15.65.65,0,0,1-.17-.25.84.84,0,0,1-.07-.37.78.78,0,0,1,.11-.46.68.68,0,0,1,.31-.27,1.35,1.35,0,0,1,.44-.11l.54,0h5.48a.75.75,0,0,1,.23,0,.58.58,0,0,1,.15.11.51.51,0,0,1,.07.15,1.1,1.1,0,0,1,0,.18,1.47,1.47,0,0,1-.07.48.86.86,0,0,1-.23.39,1.05,1.05,0,0,1-.44.26,2.2,2.2,0,0,1-.68.09Zm15.51.55a2.79,2.79,0,0,1-1.23-.26,2.51,2.51,0,0,1-.88-.69,2.79,2.79,0,0,1-.54-1,3.88,3.88,0,0,1-.18-1.18,4.4,4.4,0,0,1,.15-1,8.08,8.08,0,0,1,.33-1.07,5.08,5.08,0,0,1,.44-.87,3.29,3.29,0,0,1,.6-.73,3,3,0,0,1,.77-.5,2.34,2.34,0,0,1,.93-.18,2.57,2.57,0,0,1,.85.13,1.92,1.92,0,0,1,.66.37,1.67,1.67,0,0,1,.44.55,1.58,1.58,0,0,1,.15.69,1.79,1.79,0,0,1-.07.51,2.5,2.5,0,0,1-.28.58,1.48,1.48,0,0,1-.42.46.84.84,0,0,1-.45.12.54.54,0,0,1-.49-.19.67.67,0,0,1-.12-.52c0-.08.06-.27.14-.56a1.64,1.64,0,0,0,0-.27,1.21,1.21,0,0,0,0-.3.16.16,0,0,0-.17-.12,1,1,0,0,0-.52.14,1.26,1.26,0,0,0-.37.39,2.83,2.83,0,0,0-.31.67,5.81,5.81,0,0,0-.21.73,3.78,3.78,0,0,0-.08.56c0,.18,0,.33,0,.45a3.6,3.6,0,0,0,0,.56,1.59,1.59,0,0,0,.2.54,1.35,1.35,0,0,0,.38.41,1,1,0,0,0,.6.16,1.76,1.76,0,0,0,.8-.22,6.76,6.76,0,0,0,.88-.56,9.8,9.8,0,0,0,.84-.75c.26-.27.49-.53.68-.77l.52.87a9.64,9.64,0,0,1-1.22,1.44,6.27,6.27,0,0,1-.61.53,5.4,5.4,0,0,1-.68.46,4.13,4.13,0,0,1-.75.32A2.66,2.66,0,0,1,291.33,110.05Z"/><path class="cls-35" d="M237.66,133.28a2.77,2.77,0,0,1-1.22-.26,2.6,2.6,0,0,1-.88-.68,2.93,2.93,0,0,1-.54-1,3.86,3.86,0,0,1-.18-1.17,4.41,4.41,0,0,1,.15-1,8.58,8.58,0,0,1,.33-1.07,5.08,5.08,0,0,1,.44-.87,3.29,3.29,0,0,1,.6-.73,2.72,2.72,0,0,1,.77-.49,2.18,2.18,0,0,1,.93-.19,2.86,2.86,0,0,1,.85.13,1.92,1.92,0,0,1,.66.37,1.67,1.67,0,0,1,.44.55,1.65,1.65,0,0,1,.15.69,1.79,1.79,0,0,1-.07.51,2.22,2.22,0,0,1-.29.58,1.35,1.35,0,0,1-.41.46.84.84,0,0,1-.45.12c-.25,0-.42-.06-.49-.19a.67.67,0,0,1-.12-.52c0-.08.06-.27.14-.56a1.64,1.64,0,0,0,0-.27,1.21,1.21,0,0,0,0-.3.16.16,0,0,0-.17-.12.89.89,0,0,0-.52.15,1.12,1.12,0,0,0-.37.38,2.83,2.83,0,0,0-.31.67,5.81,5.81,0,0,0-.21.73,3.78,3.78,0,0,0-.08.56c0,.18,0,.33,0,.45a3.64,3.64,0,0,0,.05.56,1.59,1.59,0,0,0,.2.54,1.24,1.24,0,0,0,.38.41,1,1,0,0,0,.6.16,1.76,1.76,0,0,0,.8-.22,6.07,6.07,0,0,0,.87-.56,8.6,8.6,0,0,0,.85-.75c.26-.27.49-.53.68-.77l.52.88a10.77,10.77,0,0,1-1.22,1.44,7.91,7.91,0,0,1-.61.52,5.08,5.08,0,0,1-.68.46,4.13,4.13,0,0,1-.75.32A2.38,2.38,0,0,1,237.66,133.28Zm10.76-3.14h-1.68a1.35,1.35,0,0,1-.43-.06,1,1,0,0,1-.31-.16.66.66,0,0,1-.18-.23.62.62,0,0,1-.06-.26.54.54,0,0,1,.07-.27.53.53,0,0,1,.19-.23.83.83,0,0,1,.31-.17,1.42,1.42,0,0,1,.44-.06h1.65V127a.92.92,0,0,1,.08-.38.77.77,0,0,1,.19-.28.87.87,0,0,1,.26-.18.77.77,0,0,1,.3-.06.61.61,0,0,1,.43.18.74.74,0,0,1,.19.57v1.87h1.89a.74.74,0,0,1,.57.19.61.61,0,0,1,.18.43.8.8,0,0,1-.06.3.87.87,0,0,1-.18.26.88.88,0,0,1-.66.26h-1.74v1.68a1.46,1.46,0,0,1-.06.44,1,1,0,0,1-.17.31.59.59,0,0,1-.23.19.68.68,0,0,1-.27.07.58.58,0,0,1-.26-.06.6.6,0,0,1-.23-.19.87.87,0,0,1-.17-.3,1.4,1.4,0,0,1-.06-.43Zm19.08,1.57q-.54.43-1.05.78l-.46.29-.48.25a3.67,3.67,0,0,1-.45.17,1.31,1.31,0,0,1-.41.07,1.81,1.81,0,0,1-.32-.05,1.87,1.87,0,0,1-.46-.19,2.39,2.39,0,0,1-.5-.43,2.65,2.65,0,0,1-.44-.75,5.12,5.12,0,0,1-.59.55,3.79,3.79,0,0,1-.65.45,4.1,4.1,0,0,1-.68.31,2.09,2.09,0,0,1-.69.12,1.65,1.65,0,0,1-.85-.21,1.72,1.72,0,0,1-.6-.54,2.59,2.59,0,0,1-.35-.77,3.22,3.22,0,0,1-.12-.88,3.74,3.74,0,0,1,.13-1,4.45,4.45,0,0,1,.36-1c.16-.31.33-.64.53-1a3.7,3.7,0,0,1,.76-.93,3.88,3.88,0,0,1,1-.64,3.42,3.42,0,0,1,1.08-.26,7.91,7.91,0,0,1,.2-1.73c.13-.5.26-1,.4-1.61a8.89,8.89,0,0,1,.55-1.58,7,7,0,0,1,.74-1.25,3.46,3.46,0,0,1,.86-.82,1.69,1.69,0,0,1,.94-.3,1,1,0,0,1,.6.18,1.37,1.37,0,0,1,.4.49,2.47,2.47,0,0,1,.23.71,5.71,5.71,0,0,1,.07.84c0,.18,0,.36,0,.55a6.82,6.82,0,0,1-.33,2c-.21.63-.42,1.24-.62,1.85a15.18,15.18,0,0,1-.74,1.8c-.44.91-.72,1.53-.84,1.85,0,.07-.05.16-.07.26s-.05.21-.08.33l-.06.37c0,.12,0,.24,0,.36s0,.29,0,.42a1.62,1.62,0,0,0,.09.35.57.57,0,0,0,.16.25.32.32,0,0,0,.24.09,1,1,0,0,0,.32-.06,2,2,0,0,0,.35-.15c.13-.07.26-.14.38-.22l.38-.26c.27-.2.56-.43.86-.69Zm-5.22-4.45a3.16,3.16,0,0,0-.89.64,3.36,3.36,0,0,0-.65,1c-.17.44-.3.81-.39,1.13a3.13,3.13,0,0,0-.14.85,1,1,0,0,0,0,.24.8.8,0,0,0,.13.21.71.71,0,0,0,.26.15,1.27,1.27,0,0,0,.43.06.62.62,0,0,0,.26-.06,1,1,0,0,0,.26-.16,2.34,2.34,0,0,0,.23-.22,2.56,2.56,0,0,0,.2-.26,4.45,4.45,0,0,0,.38-.69,1.84,1.84,0,0,1,0-.34c0-.15,0-.39,0-.71s0-.57,0-.77,0-.39,0-.56,0-.3,0-.41A.61.61,0,0,0,262.28,127.26Zm3.55-5.14c0-.35.05-.63.05-.84a1.79,1.79,0,0,0-.07-.57.23.23,0,0,0-.21-.15.55.55,0,0,0-.45.3,2.65,2.65,0,0,0-.32.79c-.08.32-.17.67-.26,1a7.34,7.34,0,0,0-.21,1.1c0,.37-.08.69-.11,1s0,.5-.05.62,0,.49-.06.72,0,.45,0,.64,0,.35,0,.5v.4c.28-.67.53-1.33.77-2,.1-.28.19-.58.29-.88l.29-.92c.09-.3.17-.6.23-.9A5.45,5.45,0,0,0,265.83,122.12Zm24.86,11.16a2.86,2.86,0,0,1-1.24-.26,2.76,2.76,0,0,1-.88-.7,3,3,0,0,1-.52-1,4,4,0,0,1-.18-1.21,3.61,3.61,0,0,1,.16-1,10.67,10.67,0,0,1,.32-1,5.65,5.65,0,0,1,.43-.85,3.43,3.43,0,0,1,.59-.71,2.72,2.72,0,0,1,.77-.49,2.34,2.34,0,0,1,1.72-.05,2,2,0,0,1,.63.38,1.67,1.67,0,0,1,.42.59,1.94,1.94,0,0,1,.15.78,2.24,2.24,0,0,1-.3,1,4,4,0,0,1-.72,1,4.64,4.64,0,0,1-1,.73,5.28,5.28,0,0,1-1.22.49,2.35,2.35,0,0,0,.23.33.86.86,0,0,0,.22.21.64.64,0,0,0,.24.1,1.12,1.12,0,0,0,.27,0,2.79,2.79,0,0,0,.95-.18,6.55,6.55,0,0,0,1-.44,9.07,9.07,0,0,0,.89-.58,8.17,8.17,0,0,0,.72-.59l1,1a10.35,10.35,0,0,1-1.41,1.25c-.21.15-.45.3-.7.45a5.21,5.21,0,0,1-.78.4,5,5,0,0,1-.85.28A3.87,3.87,0,0,1,290.69,133.28Zm-1-3.59a1.53,1.53,0,0,0,.59-.14,2.55,2.55,0,0,0,.6-.35,3,3,0,0,0,.54-.57,1.09,1.09,0,0,0,.27-.6,1.15,1.15,0,0,0-.13-.55.35.35,0,0,0-.31-.21,1.18,1.18,0,0,0-.55.12,1.45,1.45,0,0,0-.39.3,2,2,0,0,0-.25.43l-.22.6a2.38,2.38,0,0,0-.14.58C289.68,129.45,289.68,129.58,289.68,129.69Zm-13.86-.59a1,1,0,0,1-.28,0,.89.89,0,0,1-.25-.14.69.69,0,0,1-.17-.26.82.82,0,0,1-.07-.37.81.81,0,0,1,.11-.46.72.72,0,0,1,.31-.26,1.34,1.34,0,0,1,.44-.12,4.63,4.63,0,0,1,.54,0h5.48a.53.53,0,0,1,.23,0,.4.4,0,0,1,.15.1.46.46,0,0,1,.07.16.88.88,0,0,1,0,.17,1.53,1.53,0,0,1-.07.49.89.89,0,0,1-.23.38,1.05,1.05,0,0,1-.44.26,2.2,2.2,0,0,1-.68.09Zm0,2.34a1,1,0,0,1-.28-.05.69.69,0,0,1-.25-.14.65.65,0,0,1-.17-.25.84.84,0,0,1-.07-.37.77.77,0,0,1,.11-.46.68.68,0,0,1,.31-.27,1.34,1.34,0,0,1,.44-.12l.54,0h5.48a.73.73,0,0,1,.23,0,.42.42,0,0,1,.15.11.35.35,0,0,1,.07.15,1,1,0,0,1,0,.18,1.51,1.51,0,0,1-.07.48.86.86,0,0,1-.23.39,1.17,1.17,0,0,1-.44.26,2.2,2.2,0,0,1-.68.09Z"/><path class="cls-36" d="M161.76,355.44H114.47V345.27h47.29A16.37,16.37,0,0,0,161.76,355.44Z"/><path class="cls-37" d="M163.63,343.56h0a1.57,1.57,0,0,1-1.36,1.71h-47.8v-3.42h47.8A1.56,1.56,0,0,1,163.63,343.56Zm-49.16,11.88v3.42h47.8a1.56,1.56,0,0,0,1.36-1.71h0a1.57,1.57,0,0,0-1.36-1.71Z"/><path class="cls-19" d="M118.59,355.44H58c-1.81,0-3.28-2.21-3.28-4.95v-.27c0-2.73,1.47-5,3.28-5h60.63A13.86,13.86,0,0,0,118.59,355.44Z"/><path class="cls-38" d="M58,355.44c-1.85,0-3.36-2.27-3.36-5.08h0c0-2.81,1.51-5.09,3.36-5.09h61.42c.63,0,1.14-.77,1.14-1.71h0c0-.95-.51-1.71-1.14-1.71H57.2c-3.11,0-5.63,3.81-5.63,8.51h0c0,4.69,2.52,8.5,5.63,8.5h62.26c.63,0,1.14-.76,1.14-1.71h0c0-.94-.51-1.71-1.14-1.71Z"/><polygon class="cls-39" points="107.3 347.77 111.29 347.77 111.29 353.4 109.3 351.55 107.3 353.4 107.3 347.77"/><polygon class="cls-40" points="64.11 351.58 68.1 351.58 68.1 357.21 66.1 355.36 64.11 357.21 64.11 351.58"/><path class="cls-41" d="M161.76,338.66H114.47V328.48h47.29A16.4,16.4,0,0,0,161.76,338.66Z"/><path class="cls-42" d="M163.63,326.77h0a1.57,1.57,0,0,1-1.36,1.71h-47.8v-3.42h47.8A1.57,1.57,0,0,1,163.63,326.77Zm-49.16,11.89v3.42h47.8a1.57,1.57,0,0,0,1.36-1.71h0a1.56,1.56,0,0,0-1.36-1.71Z"/><path class="cls-19" d="M118.59,338.66H58c-1.81,0-3.28-2.22-3.28-5v-.27c0-2.73,1.47-4.95,3.28-4.95h60.63A13.89,13.89,0,0,0,118.59,338.66Z"/><path class="cls-43" d="M58,338.66c-1.85,0-3.36-2.28-3.36-5.09h0c0-2.81,1.51-5.09,3.36-5.09h61.42c.63,0,1.14-.77,1.14-1.71h0c0-.94-.51-1.71-1.14-1.71H57.2c-3.11,0-5.63,3.81-5.63,8.51h0c0,4.7,2.52,8.51,5.63,8.51h62.26c.63,0,1.14-.77,1.14-1.71h0c0-.95-.51-1.71-1.14-1.71Z"/><polygon class="cls-44" points="100.97 333.8 104.96 333.8 104.96 339.43 102.97 337.57 100.97 339.43 100.97 333.8"/><polygon class="cls-45" points="76.39 330.75 80.38 330.75 80.38 336.38 78.39 334.53 76.39 336.38 76.39 330.75"/><path class="cls-46" d="M161.76,321.64H114.47V311.46h47.29A16.4,16.4,0,0,0,161.76,321.64Z"/><path class="cls-47" d="M163.63,309.75h0a1.56,1.56,0,0,1-1.36,1.71h-47.8V308h47.8A1.57,1.57,0,0,1,163.63,309.75Zm-49.16,11.89v3.42h47.8a1.57,1.57,0,0,0,1.36-1.71h0a1.56,1.56,0,0,0-1.36-1.71Z"/><path class="cls-19" d="M118.59,321.64H58c-1.81,0-3.28-2.22-3.28-4.95v-.27c0-2.74,1.47-5,3.28-5h60.63A13.89,13.89,0,0,0,118.59,321.64Z"/><path class="cls-48" d="M58,321.64c-1.85,0-3.36-2.28-3.36-5.09h0c0-2.81,1.51-5.09,3.36-5.09h61.42c.63,0,1.14-.76,1.14-1.71h0c0-.94-.51-1.71-1.14-1.71H57.2c-3.11,0-5.63,3.81-5.63,8.51h0c0,4.7,2.52,8.51,5.63,8.51h62.26c.63,0,1.14-.77,1.14-1.71h0c0-1-.51-1.71-1.14-1.71Z"/><polygon class="cls-49" points="68.1 313.96 72.08 313.96 72.08 319.59 70.09 317.74 68.1 319.59 68.1 313.96"/><path class="cls-50" d="M551.5,369.43c0-26.56-12.64-62.65-21.55-72.69l-96.67,19.54-2.39,53.15Z"/><path class="cls-51" d="M407.46,144.72c-4.73-13.09,9.58-21.61,19.12-22.35,23.36-1.81,41.59,17,63.23,77.08C506,244.27,480.48,233,480.48,233l-38.62-33.36Z"/><path class="cls-52" d="M500.61,246.63,528,303,431.6,317.83s-41.52-67.59-42.94-67.59h1.42c3.43-23.75,14.48-39.31,34.63-51a141,141,0,0,1,40.54-15.3c22.94-4.53,45-1.22,58,16.61,12.42,17,16.56,29.42,16.56,29.42Z"/><g class="cls-53"><g class="cls-54"><path class="cls-19" d="M521.78,193.89a9.64,9.64,0,1,1-9.64-9.64A9.65,9.65,0,0,1,521.78,193.89Zm-45-4.86a9.64,9.64,0,1,0,9.64,9.63A9.63,9.63,0,0,0,476.73,189Zm-11,29.86a9.64,9.64,0,1,0,9.64,9.64A9.64,9.64,0,0,0,465.75,218.89Zm-34.55-5.11a9.64,9.64,0,1,0,9.63,9.64A9.64,9.64,0,0,0,431.2,213.78Zm-29,19.28a9.64,9.64,0,1,0,9.63,9.64A9.63,9.63,0,0,0,402.18,233.06Zm34.35,23.49a9.64,9.64,0,1,0,9.64,9.64A9.64,9.64,0,0,0,436.53,256.55Zm-20.09,23.06a9.64,9.64,0,1,0,9.64,9.64A9.65,9.65,0,0,0,416.44,279.61Zm68.08-24.29a9.64,9.64,0,1,0,9.64,9.63A9.64,9.64,0,0,0,484.52,255.32Zm27.62-36.43a9.64,9.64,0,1,0,9.64,9.64A9.64,9.64,0,0,0,512.14,218.89Zm-59,74.47A9.64,9.64,0,1,0,462.8,303,9.64,9.64,0,0,0,453.16,293.36Zm39.55,0a9.64,9.64,0,1,0,9.64,9.63A9.64,9.64,0,0,0,492.71,293.36Z"/></g></g><path class="cls-55" d="M492.76,230c-4.16.88,3.71,19.1,5,22.41,2.12,5.55,6.07,13.9.92,18.85-1.06,1-2.28,1.83-3.43,2.74-2.29,1.81-4.59,3.59-6.9,5.37-4.6,3.52-9.23,7-13.83,10.52-4.43,3.38-8.91,6.72-13.08,10.41-3.89,3.43-7.6,7.05-11.65,10.29a91.51,91.51,0,0,1-8.29,5.77L528,303,501.08,247.6C499.77,245.68,493.87,232,492.76,230Z"/><path class="cls-56" d="M428.84,205.79c-2.23-7.12,6.09-12,12-14.4,8-3.28,16.17-9,21.05-4.56C474.29,198.15,434,222.13,428.84,205.79Z"/><path class="cls-57" d="M449.85,172.54l9.88,14.57c1,10.24-22.3,22.86-25.65,17.33l-8.41-16.92Z"/><path class="cls-58" d="M436.75,201.61c5.37-1.79,18.35-10.39,18.81-20.65l-5.71-8.42-24.18,15,7.47,15A33,33,0,0,0,436.75,201.61Z"/><path class="cls-59" d="M397.47,148c13-22.43,38.26-18.93,47.47-9.89,12,11.76,13.62,28.92,6.57,38-2.31,3-8.72.86-12.05-.93"/><path class="cls-60" d="M435.17,146a69.16,69.16,0,0,1,11.26,14,4.43,4.43,0,0,1,.63-.67,4.76,4.76,0,0,1,5.81-.08,8.44,8.44,0,0,1,2.49,4.68,12.18,12.18,0,0,1,.51,4.67,5,5,0,0,1-2.43,3.83,3.38,3.38,0,0,1-2,.34c8.83,15.39-14.14,29.81-25.79,25.52-15.79-5.82-25-30.66-25-30.66Z"/><path class="cls-61" d="M450,162.25a6.89,6.89,0,0,1,2.2,1.7,4.27,4.27,0,0,1,1,2,2.44,2.44,0,0,1-.53,2.08,1.74,1.74,0,0,1-2,.41,1.33,1.33,0,0,1-.67-1.46,1.6,1.6,0,0,1,1.49-1,4.59,4.59,0,0,1,1.88.45"/><path d="M431,174.34a1.12,1.12,0,0,1,.52-.63,1.09,1.09,0,0,1,.83-.08l.25.11a1.15,1.15,0,0,1,.38.41l1.3,1.83a1.12,1.12,0,0,1,.08.84,1.15,1.15,0,0,1-.52.63,1.09,1.09,0,0,1-.83.08l-.25-.12a1,1,0,0,1-.38-.4l-1.3-1.83A1.12,1.12,0,0,1,431,174.34Z"/><path d="M414.87,183.6a1,1,0,0,1,.51-.63,1.07,1.07,0,0,1,.84-.09l.25.12a1.12,1.12,0,0,1,.38.4l1.29,1.84a1,1,0,0,1,.08.83,1.1,1.1,0,0,1-.51.63,1.12,1.12,0,0,1-.84.08l-.25-.11a1.12,1.12,0,0,1-.38-.4L415,184.43A1,1,0,0,1,414.87,183.6Z"/><path d="M427.72,188.94a.42.42,0,0,1,.09-.16.3.3,0,0,1,.18-.08c.12,0,.3,0,.36.11a2.21,2.21,0,0,0,3.19.94h0a1.63,1.63,0,0,0,.78-1.14,1.81,1.81,0,0,0-.4-1.39c-.15-.2-.54-.39-.42-.7a.41.41,0,0,1,.26-.22c.18-.07.36.08.48.2a3.56,3.56,0,0,1,.39.48,2.41,2.41,0,0,1,.43,1.25,2.31,2.31,0,0,1-.53,1.61,3.12,3.12,0,0,1-1.58.91,3,3,0,0,1-1.81-.15,3,3,0,0,1-1.25-1,1.16,1.16,0,0,1-.2-.47A.71.71,0,0,1,427.72,188.94Z"/><path class="cls-61" d="M424.94,182.37c.35.81.71,1.61,1.06,2.42a3.72,3.72,0,0,0,.82,1.31,1.2,1.2,0,0,0,1.43.17"/><path class="cls-62" d="M448.94,154.79l-4.3-6.62a13,13,0,0,0-3.71-4.2,6.75,6.75,0,0,0-3.29-.89,19.26,19.26,0,0,0-2.42-3.48c-10.47-9.15-35.8-4.45-39.38,13.19A31.32,31.32,0,0,0,402.27,179s3.37-1.74,8.18-4.33c1-.55-1.19-7.46-1.19-7.46s3.79,6.24,4.76,5.7c2.79-1.54,7.81-4.25,10.92-6.06,1-.57-3.61-6.41-3.61-6.41s6.22,4.7,7,4.22c4.19-2.53,8.06-5,10.84-7a21.51,21.51,0,0,1,1.76,2.24c.84,1.28,3.34,8,5.1,8,1.6,0-3.15-8.49,3.55-9.7C450.78,157.91,449.6,155.8,448.94,154.79Z"/><path class="cls-63" d="M410.69,180.71a2.57,2.57,0,0,1,4.24-2.82"/><path class="cls-63" d="M426.85,171.7a2.57,2.57,0,0,1,4.23-2.83"/><line class="cls-64" x1="417.13" y1="245.31" x2="428.48" y2="271.91"/><line class="cls-64" x1="500.61" y1="246.63" x2="492.76" y2="229.96"/><path class="cls-65" d="M146.63,251.85c1-18.74,7.74-64.11,48.06-65.75,39.55-1.6,79.63,17.41,89.83,26.1,19.23,16.38,35.66,51.61,35.66,51.61l-40.42,26.57-1.63,68.48H193.45V255.32C183.08,250.63,161.65,249.44,146.63,251.85Z"/><path class="cls-66" d="M233.59,331.07a117.14,117.14,0,0,1-13-10.94A71.65,71.65,0,0,1,209.74,307c-6.07-9.83-8.57-21.38-10.28-32.67-1.63-10.77-2.47-21.71-5-32.32a13.77,13.77,0,0,0-.43,2.4c-.16,1.38-.79,10.85-.6,10.94V358.86h84.37c-4.86-3.25-9.86-6.29-14.87-9.28C253,343.66,242.94,337.91,233.59,331.07Z"/><path class="cls-67" d="M193.69,248.42a21,21,0,0,0-8.08-3,70.31,70.31,0,0,0-8.31-1c-3.18-.24-6.35-.39-9.53-.44a88.5,88.5,0,0,0-20.67,1.79c-.23,2.23-.38,4.29-.47,6.09,14.92-2.39,36.16-1.24,46.61,3.38C193.27,252.94,193,250.63,193.69,248.42Z"/><path class="cls-68" d="M310.3,261.45A100.62,100.62,0,0,0,300,266.23c-3,1.58-6,3.21-8.89,5.07-5.66,3.68-11.14,8.24-14.68,14.08,1.1,1.69,2.3,3.3,3.48,4.93l40.3-26.5s-.85-1.81-2.37-4.79A59.77,59.77,0,0,0,310.3,261.45Z"/><path class="cls-69" d="M146.63,251.85v95.77a11.24,11.24,0,0,0,11.24,11.24h48.18c8.14,0-.71-12.1-12.6-13V255.32C180.12,249.59,163.3,249.39,146.63,251.85Z"/><line class="cls-64" x1="276.3" y1="247.13" x2="276.3" y2="286.05"/><path class="cls-64" d="M193.45,255.32c0-6.35.56-12.52,1.67-14.82"/><path class="cls-70" d="M256.48,211.9S253.43,222,246,222.27c-21.52.65-14.16-26.22-14.16-26.22Z"/><path class="cls-71" d="M254.18,216.75a22,22,0,0,0,2.3-4.85l-24.62-15.85a39.65,39.65,0,0,0-1.11,12.17C237.08,217.73,251.34,218.5,254.18,216.75Z"/><path class="cls-72" d="M278.13,358.86s-4.71-60.31,3.82-72.81c21.64-31.73,75-30.19,103-29.15,43.19,1.61,56.83,25.27,62.37,65.56l-44.19,3.32s2.18,33.08,1.2,33.08Z"/><path class="cls-73" d="M363.7,257.3a20.23,20.23,0,0,0,5.36.7,5.84,5.84,0,0,1,3.13.67,6.08,6.08,0,0,1,1.89,1.92c.91,1.4,1.7,2.88,2.62,4.27s2,3.1,3.56,3.91c1.68.89,2.73-.74,3.34-2.13a.51.51,0,0,1,.92,0c.87,2.19,4.08,6.08,6.35,3.23a.51.51,0,0,1,.9.21c.23,2.47,4.26,3.12,5.28.88a.51.51,0,0,1,.93,0,4.68,4.68,0,0,0,5.13,2.4c2.76-1,2.3-5.3,1.95-7.5a24.78,24.78,0,0,0-1.25-4.71,16,16,0,0,0-.81-1.87A91.68,91.68,0,0,0,385,256.9c-6.66-.24-14.77-.51-23.53-.36C362.18,256.81,362.93,257.08,363.7,257.3Z"/><path class="cls-74" d="M398.07,308.64c0,2,1.49,14.15,1.49,14.15s-2.13-.32-3.19-.45c-8.87-1-70.09-5.37-102.17,4.8A110.33,110.33,0,0,0,277,334.56c.32,13.45,1.17,24.3,1.17,24.3h126.2c.79,0-.46-21.3-1-29.71C401.56,322.29,401.07,315.1,398.07,308.64Z"/><path class="cls-75" d="M340.33,287.44a16.63,16.63,0,0,0,8.1,2.18,14.64,14.64,0,0,0,7.94-2.07,13.75,13.75,0,0,0,5.35-6.14c1.38-3.07,1.6-6.48,1.75-9.79.24-5.16-.28-10.45-2.42-15.08a188.55,188.55,0,0,0-32.74,3.17c-1.59,4.84-.17,10.45,1.8,15C332.27,279.59,335.64,284.6,340.33,287.44Z"/><path class="cls-76" d="M307.82,345.62c.9-14.73,5.28-21.28,41-21.31s54.34,1.47,54.34,1.47c16.24-3.2,31.21-4.63,44.19-3.32,0,0,2.55,30.39-5.37,38.24S309,358.86,309,358.86Z"/><path class="cls-77" d="M447.32,322.46c-10.92-1.11-23.27-.26-36.59,1.94a27.77,27.77,0,0,1-1,6.47,18.31,18.31,0,0,1-5.53,8.67c-5.92,5.2-14.16,7-21.8,7.67-8.16.69-16.35.12-24.5-.32a245.76,245.76,0,0,0-28.72.36c-7,.43-14.05,1-21.09,1.39l.93,10.22S434,368.54,442,360.7,447.32,322.46,447.32,322.46Z"/><path class="cls-64" d="M398.2,306.78c2.29,6.64,4.27,13.14,4.93,19"/><line class="cls-64" x1="318.2" y1="302.51" x2="318.2" y2="327.59"/><path class="cls-78" d="M335.48,274.91s2.76,9.21,9.49,9.41c19.51.59,12.84-23.78,12.84-23.78Z"/><path class="cls-79" d="M344.87,279.92a31.38,31.38,0,0,0,10-3,21.48,21.48,0,0,0,3.38-2c1.67-6.67-.46-14.46-.46-14.46l-22.33,14.37a19.93,19.93,0,0,0,2.72,5.33C340.43,280.19,342.66,280.16,344.87,279.92Z"/><path class="cls-80" d="M618.37,374.55H18a7.84,7.84,0,0,1-7.84-7.84h0A7.85,7.85,0,0,1,18,358.86H618.37a7.85,7.85,0,0,1,7.84,7.85h0A7.84,7.84,0,0,1,618.37,374.55Z"/><path class="cls-81" d="M618.37,358.86h-2.93a7.72,7.72,0,0,1,.39,2.42,7.85,7.85,0,0,1-7.85,7.84H10.58A7.84,7.84,0,0,0,18,374.55H618.37a7.85,7.85,0,0,0,0-15.69Z"/><path class="cls-82" d="M381,358.86H330.8a4,4,0,0,1-4-4h0a4,4,0,0,1,4-4H381a4,4,0,0,1,4,4h0A4,4,0,0,1,381,358.86Z"/><path class="cls-83" d="M332.65,358.86H226.1a2.84,2.84,0,0,1-2.59-1.68L193.7,290a2.83,2.83,0,0,1,2.59-4H302.83a2.83,2.83,0,0,1,2.59,1.68l29.82,67.15A2.83,2.83,0,0,1,332.65,358.86Z"/><path class="cls-84" d="M335.41,358.68h0a2.16,2.16,0,0,1-2.85-1.1l-30.7-68.79a2.17,2.17,0,0,1,1.1-2.85h0a2.15,2.15,0,0,1,2.85,1.09l30.7,68.79A2.18,2.18,0,0,1,335.41,358.68Z"/><ellipse class="cls-85" cx="260.47" cy="324.31" rx="10.13" ry="16.62" transform="translate(-155.45 330.03) rotate(-52.02)"/><path class="cls-86" d="M237.76,162.73a70.5,70.5,0,0,0-8,16.64,4.41,4.41,0,0,0-.78-.52,4.88,4.88,0,0,0-5.84,1.28c-1.15,1.44-1.35,3.41-1.4,5.26a12.63,12.63,0,0,0,.58,4.78,5.15,5.15,0,0,0,3.32,3.27,3.53,3.53,0,0,0,2.06-.12c-5.24,17.45,23.66,25.69,33.09,20.53,13.18-7.22,16.5-37.52,16.5-37.52Z"/><path class="cls-87" d="M246.91,173.39a6.69,6.69,0,0,0,12,2.68,5.16,5.16,0,0,0,9.61,2.4,3.69,3.69,0,0,0,.06,4.42,6.13,6.13,0,0,0,4.07,2.22,9.68,9.68,0,0,0,9.48-4.33,6.45,6.45,0,1,0,2.79-12.58,5.59,5.59,0,0,0-9.68-5.52c1.75-1,2.13-3.55,1.12-5.28a6.41,6.41,0,0,0-5.05-2.84,19.05,19.05,0,0,0-5.94.72,7.18,7.18,0,0,0-11.94-3.1,4.58,4.58,0,0,0-8.66,1.32c-2.23-1.09-4.62-2.21-7.08-1.89s-4.81,2.74-4.08,5.11c-4.47-.16-8.52,3.37-10,7.6s-2.3,14.49,2.17,14.18c6.94-.48,2.65,9.61,5.38,8.78,2.41-.74,1.68-9.58,3.47-11.06,1.55-1.28,3-1.36,5-1.23C240.41,175,247.29,175.33,246.91,173.39Z"/><path class="cls-88" d="M226.72,182.49a6.87,6.87,0,0,0-1.8,2.21,4.35,4.35,0,0,0-.55,2.19,2.46,2.46,0,0,0,1,2,1.77,1.77,0,0,0,2.12-.06,1.38,1.38,0,0,0,.34-1.61,1.63,1.63,0,0,0-1.74-.69,4.87,4.87,0,0,0-1.78.88"/><path d="M248.5,190.16a1.11,1.11,0,0,0-1.52-.4l-.22.17a1.23,1.23,0,0,0-.29.49c-.28.72-.57,1.43-.86,2.14a1.1,1.1,0,0,0,1.63,1.25l.22-.17a1.16,1.16,0,0,0,.29-.49c.29-.71.57-1.42.86-2.14A1.1,1.1,0,0,0,248.5,190.16Z"/><path d="M266.84,195.64a1.1,1.1,0,0,0-1.52-.39l-.22.17a1.16,1.16,0,0,0-.29.49c-.29.71-.57,1.42-.86,2.14a1.1,1.1,0,0,0,.11.85,1.11,1.11,0,0,0,1.52.4l.22-.17a1.23,1.23,0,0,0,.29-.49c.28-.72.57-1.43.86-2.14A1.12,1.12,0,0,0,266.84,195.64Z"/><path d="M255.23,204a.4.4,0,0,0-.13-.13.28.28,0,0,0-.2,0c-.12,0-.3.05-.33.2a2.27,2.27,0,0,1-3,1.67h0a1.68,1.68,0,0,1-1-1,1.9,1.9,0,0,1,.07-1.48c.11-.23.46-.51.26-.8a.45.45,0,0,0-.31-.16c-.2,0-.34.17-.44.32a3.61,3.61,0,0,0-.27.56,2.5,2.5,0,0,0-.14,1.35,2.33,2.33,0,0,0,.9,1.49,3.27,3.27,0,0,0,1.79.54,3,3,0,0,0,2.79-1.89,1.14,1.14,0,0,0,.09-.52A.83.83,0,0,0,255.23,204Z"/><path class="cls-88" d="M256.48,196.77c-.17.88-.33,1.77-.5,2.66a3.66,3.66,0,0,1-.51,1.5,1.24,1.24,0,0,1-1.4.51"/><path class="cls-89" d="M267,188a9.32,9.32,0,0,0-8.51,5.56,4.92,4.92,0,0,0-2.36-.76,9.78,9.78,0,0,0,.25-2.18,10,10,0,1,0-1,4.39,3,3,0,0,1,2,.44,1.08,1.08,0,0,0,.44.6,10.21,10.21,0,0,0-.09,1.25A9.3,9.3,0,1,0,267,188Zm-20.59,10.37a7.75,7.75,0,1,1,7.76-7.75A7.76,7.76,0,0,1,246.41,198.34ZM267,204.5a7.23,7.23,0,1,1,7.23-7.23A7.23,7.23,0,0,1,267,204.5Z"/><path class="cls-64" d="M249.62,180.2a2.63,2.63,0,0,1,5,1.33m18,6.26a2.64,2.64,0,0,0-5.06-1.33"/><path class="cls-90" d="M188.4,347.89c6.24-.92,18.57,6.89,14,11m-6.3,0c4-5.06-9.43-10.12-14.64-10.12m7.87,10.12c3.08-2.89-2-8.56-15.2-8.56"/><path class="cls-19" d="M394.4,290.51c12.35-19.34,34.08-18.6,34.08-18.6,9-10.09,28.65-13.69,43.28-10.35l1.11,3.81c-6.26-2.51-32.13-3.42-42.67,10,0,0-22.22-.18-32,18.17Z"/><path class="cls-91" d="M426.77,305.3,398.2,293.5c5.56-10,15.16-16.91,32-18.17,10.83-10.85,25.47-13.25,42.67-10l15.73,15.91L444,294.78Z"/><polygon class="cls-92" points="487.54 277.99 471.76 261.56 472.87 265.37 488.6 281.28 487.54 277.99"/><path class="cls-93" d="M539.81,230c9.59,23.7,25.48,59.85-9.11,72.13-34.09,12.09-69.24,12.82-90.87,5.59-14.5-4.85-18.69-8-22-10.94-4.32-3.88-2.33-6,.47-4.67-5.16-1.8-2.88-5.93,1.51-4.25-2.72-1.68-4.47-6.5,3-4.6-5.92-1.65-2-6.3,13.15-3.57,3.5.63,13.74.88,13.74.88s-6.3-10.06-2.38-10.22c4.4-.17,7.83,4.72,10.28,5.85,9.8,4.49,33.93,1.12,51.95-6.35l-8.94-23.18C512.31,238.68,525,232.44,539.81,230Z"/><line class="cls-64" x1="509.55" y1="269.81" x2="517.58" y2="266.99"/><path class="cls-64" d="M422.22,283.08a92.63,92.63,0,0,0,18.55,3.42"/><path class="cls-64" d="M419.72,287.82a98,98,0,0,0,18.78,4.79"/><path class="cls-64" d="M417.69,291.76a184.06,184.06,0,0,0,18.78,6.7"/><path class="cls-94" d="M528.71,312.32h49.48a5.31,5.31,0,0,1,5.31,5.31v41.23a0,0,0,0,1,0,0h-60.1a0,0,0,0,1,0,0V317.63A5.31,5.31,0,0,1,528.71,312.32Z"/><path class="cls-95" d="M578.19,312.32H564.54c2.94,0,5.31,8.12,5.31,11.05,0,36.72-46.44,35.49-46.44,35.49H583.5V317.63A5.31,5.31,0,0,0,578.19,312.32Z"/><path class="cls-19" d="M518.39,355.44H471.11V345.27h47.28A16.37,16.37,0,0,0,518.39,355.44Z"/><path class="cls-96" d="M520.27,343.56h0a1.57,1.57,0,0,1-1.37,1.71H471.11v-3.42H518.9A1.56,1.56,0,0,1,520.27,343.56Zm-49.16,11.88v3.42H518.9a1.56,1.56,0,0,0,1.37-1.71h0a1.57,1.57,0,0,0-1.37-1.71Z"/><path class="cls-97" d="M475.22,355.44H414.59c-1.81,0-3.28-2.21-3.28-4.95v-.27c0-2.73,1.47-5,3.28-5h60.63A13.92,13.92,0,0,0,475.22,355.44Z"/><path class="cls-98" d="M414.68,355.44c-1.86,0-3.37-2.27-3.37-5.08h0c0-2.81,1.51-5.09,3.37-5.09H476.1c.62,0,1.13-.77,1.13-1.71h0c0-.95-.51-1.71-1.13-1.71H413.83c-3.11,0-5.63,3.81-5.63,8.51h0c0,4.69,2.52,8.5,5.63,8.5H476.1c.62,0,1.13-.76,1.13-1.71h0c0-.94-.51-1.71-1.13-1.71Z"/><polygon class="cls-99" points="463.93 347.77 467.92 347.77 467.92 353.4 465.93 351.55 463.93 353.4 463.93 347.77"/><polygon class="cls-100" points="420.74 351.58 424.73 351.58 424.73 357.21 422.73 355.36 420.74 357.21 420.74 351.58"/><path class="cls-19" d="M518.39,338.66H471.11V328.48h47.28A16.4,16.4,0,0,0,518.39,338.66Z"/><path class="cls-101" d="M520.27,326.77h0a1.57,1.57,0,0,1-1.37,1.71H471.11v-3.42H518.9A1.57,1.57,0,0,1,520.27,326.77Zm-49.16,11.89v3.42H518.9a1.57,1.57,0,0,0,1.37-1.71h0a1.56,1.56,0,0,0-1.37-1.71Z"/><path class="cls-102" d="M475.22,338.66H414.59c-1.81,0-3.28-2.22-3.28-5v-.27c0-2.73,1.47-4.95,3.28-4.95h60.63A13.94,13.94,0,0,0,475.22,338.66Z"/><path class="cls-103" d="M414.68,338.66c-1.86,0-3.37-2.28-3.37-5.09h0c0-2.81,1.51-5.09,3.37-5.09H476.1c.62,0,1.13-.77,1.13-1.71h0c0-.94-.51-1.71-1.13-1.71H413.83c-3.11,0-5.63,3.81-5.63,8.51h0c0,4.7,2.52,8.51,5.63,8.51H476.1c.62,0,1.13-.77,1.13-1.71h0c0-.95-.51-1.71-1.13-1.71Z"/><polygon class="cls-104" points="457.6 333.8 461.59 333.8 461.59 339.43 459.6 337.57 457.6 339.43 457.6 333.8"/><polygon class="cls-105" points="433.03 330.75 437.01 330.75 437.01 336.38 435.02 334.53 433.03 336.38 433.03 330.75"/><path class="cls-106" d="M561.11,312.32c6-.07,21.55-3.73,22.34-10.05.2-1.59-2-2.59-3.58-2.69a11,11,0,0,0-4.64,1.12l-18,7.28,18.24-12.11c3-2,6.48-4.83,6-8.46-.41-3.4-4.38-5.46-7.77-4.94s-6.19,2.87-8.56,5.36A55.6,55.6,0,0,0,553,307.53q3.15-13.75,6.31-27.53c.62-2.71,1.25-5.49.84-8.24s-2.11-5.49-4.76-6.31c-3-.91-6.24.86-8,3.44s-2.22,5.75-2.5,8.84A84.1,84.1,0,0,0,548.35,310a58.66,58.66,0,0,0-13-24.83,15.14,15.14,0,0,0-5.29-4.27,6.3,6.3,0,0,0-6.48.66,6.37,6.37,0,0,0-1.62,6.2,16.35,16.35,0,0,0,3.16,5.89,84.87,84.87,0,0,0,19.4,18.71Z"/><path class="cls-107" d="M606.79,151.49H514a7.73,7.73,0,0,1-7.73-7.73h0A7.73,7.73,0,0,1,514,136h92.82a7.73,7.73,0,0,1,7.73,7.73h0A7.73,7.73,0,0,1,606.79,151.49Z"/><path class="cls-108" d="M521,173.31h0a4.49,4.49,0,0,1-4.48-4.48V151.47h9v17.36A4.48,4.48,0,0,1,521,173.31Zm83.3-21.84h-9v17.36a4.49,4.49,0,0,0,4.48,4.48h0a4.49,4.49,0,0,0,4.48-4.48Z"/><rect class="cls-109" x="526.39" y="69.61" width="15.43" height="66.4" rx="1.32"/><rect class="cls-110" x="541.82" y="75.17" width="14.44" height="60.84" rx="1.87"/><rect class="cls-111" x="556.25" y="81.11" width="14.44" height="54.89" rx="1.74"/><rect class="cls-112" x="574.89" y="89.75" width="15.43" height="45.82" rx="2.42" transform="translate(-10.48 131.83) rotate(-12.8)"/><path class="cls-113" d="M362.55,255.56c-2-2.58,5.08-7.67,14.9-7.9,1.34-.93,6.5-.74,7.65.82,1.12-1,6.83.28,8.67,2.8,2-1.42,8.41,2.84,9.66,8.65,1.57,7.32,1.12,13.3-1.88,12.41s-3.49-9.25-3.49-9.25-.17,8.4-2.6,8.05c-3.33-.48-4.21-10.21-4.21-10.21s1.31,7.43-1.37,8-6.65-10.52-6.65-10.52,2.44,8.33-1.55,8.74-3.72-9.39-9.36-10.53C367.23,255.58,364.54,258.13,362.55,255.56Z"/><path class="cls-114" d="M377.45,247.66c2.89,2.28,5,7.39,5.76,10.28"/><path class="cls-114" d="M385.1,248.48c3.12,3,5.79,9.66,6.15,12.45"/><path class="cls-114" d="M393.77,251.28c1.33,2.24,4.33,9,4.29,11.81"/><path class="cls-115" d="M350.11,220.24c4.43-2,6.6-3.81,12.43-.24s7.54,19.29,6.33,23.95a43.6,43.6,0,0,1-2.82,7.87l-10.67-7.9Z"/><path class="cls-116" d="M354.7,228.05a70.54,70.54,0,0,1,5.88,17.49,5.07,5.07,0,0,1,.84-.42,4.88,4.88,0,0,1,5.63,2,8.55,8.55,0,0,1,.74,5.39,12.5,12.5,0,0,1-1.16,4.68,5.18,5.18,0,0,1-3.71,2.84,3.55,3.55,0,0,1-2-.39c3,18-26.65,22.58-35.38,16.29-12.18-8.79-11.73-39.27-11.73-39.27Z"/><path class="cls-88" d="M363.21,249a6.86,6.86,0,0,1,1.51,2.42,4.3,4.3,0,0,1,.28,2.24,2.52,2.52,0,0,1-1.25,1.82,1.79,1.79,0,0,1-2.09-.33,1.37,1.37,0,0,1-.14-1.64,1.65,1.65,0,0,1,1.81-.47,4.79,4.79,0,0,1,1.66,1.09"/><path d="M340.65,253.93a1.1,1.1,0,0,1,.72-.42,1.11,1.11,0,0,1,.83.21l.2.2a1.15,1.15,0,0,1,.23.53c.19.74.39,1.48.59,2.22a1.09,1.09,0,0,1-.94,1.26,1.11,1.11,0,0,1-.83-.21l-.2-.2A1.14,1.14,0,0,1,341,257l-.6-2.23A1.1,1.1,0,0,1,340.65,253.93Z"/><path d="M321.77,257.11a1.1,1.1,0,0,1,1.56-.21l.2.2a1.1,1.1,0,0,1,.22.52l.6,2.23a1.17,1.17,0,0,1-.22.83,1.11,1.11,0,0,1-.72.43,1.14,1.14,0,0,1-.84-.22l-.2-.2a1.1,1.1,0,0,1-.22-.52l-.6-2.23A1.17,1.17,0,0,1,321.77,257.11Z"/><path d="M332.27,266.82a.28.28,0,0,1,.14-.12.34.34,0,0,1,.2,0c.12,0,.3.1.31.24a2.27,2.27,0,0,0,2.74,2h0a1.64,1.64,0,0,0,1.16-.82,1.88,1.88,0,0,0,.11-1.47c-.08-.25-.39-.57-.16-.83a.44.44,0,0,1,.33-.12c.2,0,.32.21.39.37a3.72,3.72,0,0,1,.2.59,2.42,2.42,0,0,1,0,1.36,2.36,2.36,0,0,1-1.07,1.37,3.28,3.28,0,0,1-1.85.31,3,3,0,0,1-2.53-2.23,1.14,1.14,0,0,1,0-.52A.61.61,0,0,1,332.27,266.82Z"/><path class="cls-88" d="M331.92,259.5c.05.9.1,1.81.16,2.71a3.57,3.57,0,0,0,.33,1.55,1.22,1.22,0,0,0,1.31.68"/><path class="cls-117" d="M364.84,241.44l-1.8-7.9a13.38,13.38,0,0,0-2.08-5.38c-1-1.34-3.71-2.94-5.27-2l-1.06-2.84c-.42-10.36-17.35-18.61-33.09-13.83-19.11,5.8-18.86,21.57-14.53,24.7-2.43-1.41-7.85,3.38-3.86,11.34,2.53,5,7.33,9.78,12.7,11.5a96.77,96.77,0,0,1-1.64-11.72s-.8-1.31.83-2.65c3.57-2.95,13.1-3.27,17.73-3.28s9.29.59,13.86-.09a19,19,0,0,0,6.48-2.17c.71,2.24,1.77,4.38,2.23,6.37.35,1.53.37,8.9,2.09,9.49,1.55.52,0-9.31,6.86-8.1C365.51,245.1,365.12,242.64,364.84,241.44Z"/><path class="cls-64" d="M318.77,252.85a2.64,2.64,0,0,1,5.09-1.22"/><path class="cls-64" d="M337.54,249.89a2.64,2.64,0,0,1,5.09-1.22"/></g></g></g></svg>